SplineFontDB: 3.2
FontName: nevis-Bold
FullName: nevis Bold
FamilyName: nevis
Weight: Bold
Copyright: Typeface (c) (your company). 2007. All Rights Reserved
Version: 1.00 November 19, 2007, initial release
ItalicAngle: 0
UnderlinePosition: -292
UnderlineWidth: 150
Ascent: 1638
Descent: 410
InvalidEm: 0
sfntRevision: 0x00010000
LayerCount: 2
Layer: 0 1 "Back" 1
Layer: 1 1 "Fore" 0
XUID: [1021 339 1127818896 21298]
StyleMap: 0x0020
FSType: 8
OS2Version: 1
OS2_WeightWidthSlopeOnly: 0
OS2_UseTypoMetrics: 0
CreationTime: 1195511766
ModificationTime: 1610782816
PfmFamily: 17
TTFWeight: 700
TTFWidth: 5
LineGap: 67
VLineGap: 0
Panose: 2 0 8 0 0 0 0 0 0 0
OS2TypoAscent: 1491
OS2TypoAOffset: 0
OS2TypoDescent: -431
OS2TypoDOffset: 0
OS2TypoLinegap: 307
OS2WinAscent: 1854
OS2WinAOffset: 0
OS2WinDescent: 434
OS2WinDOffset: 0
HheadAscent: 1854
HheadAOffset: 0
HheadDescent: -434
HheadDOffset: 0
OS2SubXSize: 1434
OS2SubYSize: 1331
OS2SubXOff: 0
OS2SubYOff: 283
OS2SupXSize: 1434
OS2SupYSize: 1331
OS2SupXOff: 0
OS2SupYOff: 977
OS2StrikeYSize: 102
OS2StrikeYPos: 530
OS2Vendor: 'HL  '
OS2CodePages: 20000111.41000000
OS2UnicodeRanges: 800000a7.5000004a.00000000.00000000
Lookup: 258 0 0 "'kern' Horizontal Kerning in Latin lookup 0" { "'kern' Horizontal Kerning in Latin lookup 0 subtable"  } ['kern' ('latn' <'dflt' > ) ]
DEI: 91125
TtTable: prep
PUSHW_1
 511
SCANCTRL
PUSHB_1
 1
SCANTYPE
SVTCA[y-axis]
MPPEM
PUSHB_1
 8
LT
IF
PUSHB_2
 1
 1
INSTCTRL
EIF
PUSHB_2
 70
 6
CALL
IF
POP
PUSHB_1
 16
EIF
MPPEM
PUSHB_1
 20
GT
IF
POP
PUSHB_1
 128
EIF
SCVTCI
PUSHB_1
 6
CALL
NOT
IF
EIF
PUSHB_1
 20
CALL
EndTTInstrs
TtTable: fpgm
PUSHB_1
 0
FDEF
PUSHB_1
 0
SZP0
MPPEM
PUSHB_1
 42
LT
IF
PUSHB_1
 74
SROUND
EIF
PUSHB_1
 0
SWAP
MIAP[rnd]
RTG
PUSHB_1
 6
CALL
IF
RTDG
EIF
MPPEM
PUSHB_1
 42
LT
IF
RDTG
EIF
DUP
MDRP[rp0,rnd,grey]
PUSHB_1
 1
SZP0
MDAP[no-rnd]
RTG
ENDF
PUSHB_1
 1
FDEF
DUP
MDRP[rp0,min,white]
PUSHB_1
 12
CALL
ENDF
PUSHB_1
 2
FDEF
MPPEM
GT
IF
RCVT
SWAP
EIF
POP
ENDF
PUSHB_1
 3
FDEF
ROUND[Black]
RTG
DUP

StartChar: .notdef
Encoding: 65536 -1 0
Width: 1226
Flags: W
LayerCount: 2
Fore
SplineSet
566 1500 m 0,0,1
 746 1500 746 1500 906.5 1379.5 c 128,-1,2
 1067 1259 1067 1259 1067 1060 c 1,3,4
 1057 920 1057 920 992 815 c 128,-1,5
 927 710 927 710 782 670 c 128,-1,6
 637 630 637 630 628 400 c 1,7,-1
 348 400 l 1,8,9
 348 590 348 590 413 715 c 128,-1,10
 478 840 478 840 641 876 c 1,11,12
 778 900 778 900 783 1078 c 1,13,14
 748 1215 748 1215 507 1220 c 0,15,16
 327 1220 327 1220 227 1100 c 1,17,-1
 27 1300 l 1,18,19
 127 1400 127 1400 242 1450 c 128,-1,20
 357 1500 357 1500 566 1500 c 0,0,1
348 140 m 256,21,22
 348 80 348 80 388 40 c 128,-1,23
 428 0 428 0 498 0 c 256,24,25
 568 0 568 0 608 40 c 128,-1,26
 648 80 648 80 648 140 c 256,27,28
 648 200 648 200 608 240.5 c 128,-1,29
 568 281 568 281 496 281 c 0,30,31
 428 281 428 281 388 240.5 c 128,-1,32
 348 200 348 200 348 140 c 256,21,22
EndSplineSet
EndChar

StartChar: exclam
Encoding: 33 33 4
Width: 600
GlyphClass: 2
Flags: W
LayerCount: 2
Fore
SplineSet
179 399 m 1,0,-1
 130 1334 l 2,1,2
 130 1406 130 1406 157.5 1436 c 128,-1,3
 185 1466 185 1466 261 1466 c 0,4,5
 338 1466 338 1466 365 1436 c 128,-1,6
 392 1406 392 1406 392 1334 c 1,7,-1
 311 399 l 1,8,-1
 179 399 l 1,0,-1
100 140 m 256,9,10
 100 80 100 80 140 40 c 128,-1,11
 180 0 180 0 250 0 c 256,12,13
 320 0 320 0 360 40 c 128,-1,14
 400 80 400 80 400 140 c 256,15,16
 400 200 400 200 360 240.5 c 128,-1,17
 320 281 320 281 248 281 c 0,18,19
 180 281 180 281 140 240.5 c 128,-1,20
 100 200 100 200 100 140 c 256,9,10
EndSplineSet
EndChar

StartChar: quotedbl
Encoding: 34 34 5
Width: 800
GlyphClass: 2
Flags: W
LayerCount: 2
Fore
SplineSet
267 1098 m 1,0,-1
 157 1098 l 1,1,-1
 104 1474 l 2,2,3
 101 1493 101 1493 101 1500 c 0,4,5
 101 1529 101 1529 125 1558 c 128,-1,6
 149 1587 149 1587 211 1587 c 0,7,8
 271 1587 271 1587 297 1558.5 c 128,-1,9
 323 1530 323 1530 323 1501 c 0,10,11
 323 1496 323 1496 321 1478 c 2,12,-1
 267 1098 l 1,0,-1
580 1098 m 1,13,-1
 469 1098 l 1,14,-1
 417 1475 l 2,15,16
 413 1493 413 1493 413 1500 c 0,17,18
 413 1529 413 1529 437.5 1558 c 128,-1,19
 462 1587 462 1587 524 1587 c 0,20,21
 584 1587 584 1587 609.5 1558.5 c 128,-1,22
 635 1530 635 1530 635 1501 c 0,23,24
 635 1496 635 1496 633 1478 c 2,25,-1
 580 1098 l 1,13,-1
EndSplineSet
EndChar

StartChar: numbersign
Encoding: 35 35 6
Width: 1492
GlyphClass: 2
Flags: W
LayerCount: 2
Fore
SplineSet
680 876 m 1,0,-1
 597 609 l 1,1,-1
 815 609 l 1,2,-1
 899 876 l 1,3,-1
 680 876 l 1,0,-1
625 1499 m 1,4,-1
 862 1499 l 1,5,-1
 731 1064 l 1,6,-1
 949 1064 l 1,7,-1
 1081 1499 l 1,8,-1
 1317 1499 l 1,9,-1
 1186 1064 l 1,10,-1
 1475 1064 l 1,11,-1
 1424 881 l 1,12,-1
 1135 881 l 1,13,-1
 1054 614 l 1,14,-1
 1363 614 l 1,15,-1
 1311 430 l 1,16,-1
 1001 430 l 1,17,-1
 871 0 l 1,18,-1
 635 0 l 1,19,-1
 764 430 l 1,20,-1
 548 430 l 1,21,-1
 416 0 l 1,22,-1
 180 0 l 1,23,-1
 310 430 l 1,24,-1
 37 430 l 1,25,-1
 89 614 l 1,26,-1
 360 614 l 1,27,-1
 444 881 l 1,28,-1
 149 881 l 1,29,-1
 200 1064 l 1,30,-1
 495 1064 l 1,31,-1
 625 1499 l 1,4,-1
EndSplineSet
EndChar

StartChar: dollar
Encoding: 36 36 7
Width: 1413
GlyphClass: 2
Flags: W
LayerCount: 2
Fore
SplineSet
747 618 m 1,0,-1
 747 290 l 1,1,2
 844 309 844 309 877 365 c 0,3,4
 926 450 926 450 877 535 c 0,5,6
 844 591 844 591 747 618 c 1,0,-1
607 1207 m 1,7,8
 528 1187 528 1187 497 1135 c 0,9,10
 447 1050 447 1050 497 990 c 0,11,12
 528 953 528 953 607 928 c 1,13,-1
 607 1207 l 1,7,8
747 1498 m 1,14,15
 900 1490 900 1490 992 1450 c 0,16,17
 1107 1400 1107 1400 1207 1300 c 1,18,-1
 1007 1100 l 1,19,20
 913 1213 913 1213 747 1220 c 1,21,-1
 747 898 l 1,22,23
 925 874 925 874 1072 775 c 0,24,25
 1227 670 1227 670 1227 440 c 0,26,27
 1227 260 1227 260 1062 130 c 0,28,29
 923 21 923 21 747 4 c 1,30,-1
 747 -100 l 1,31,-1
 607 -100 l 1,32,-1
 607 2 l 1,33,34
 443 10 443 10 327 60 c 0,35,36
 187 120 187 120 87 220 c 1,37,-1
 287 420 l 1,38,39
 383 305 383 305 607 282 c 1,40,-1
 607 642 l 1,41,42
 439 665 439 665 297 750 c 0,43,44
 147 840 147 840 147 1060 c 0,45,46
 147 1259 147 1259 318 1380 c 0,47,48
 459 1479 459 1479 607 1497 c 1,49,-1
 607 1600 l 1,50,-1
 747 1600 l 1,51,-1
 747 1498 l 1,14,15
EndSplineSet
EndChar

StartChar: percent
Encoding: 37 37 8
Width: 1900
GlyphClass: 2
Flags: W
LayerCount: 2
Fore
SplineSet
352 0 m 1,0,-1
 1202 1500 l 1,1,-1
 1446 1500 l 1,2,-1
 598 0 l 1,3,-1
 352 0 l 1,0,-1
167 867 m 128,-1,5
 59 975 59 975 59 1135 c 256,6,7
 59 1295 59 1295 167 1403 c 128,-1,8
 275 1511 275 1511 435 1511 c 256,9,10
 595 1511 595 1511 703 1403 c 128,-1,11
 811 1295 811 1295 811 1135 c 256,12,13
 811 975 811 975 703 867 c 128,-1,14
 595 759 595 759 435 759 c 256,15,4
 275 759 275 759 167 867 c 128,-1,5
432 937 m 256,16,17
 516 937 516 937 569 994 c 128,-1,18
 622 1051 622 1051 622 1136 c 256,19,20
 622 1221 622 1221 569 1277.5 c 128,-1,21
 516 1334 516 1334 431 1334 c 0,22,23
 348 1334 348 1334 295 1277.5 c 128,-1,24
 242 1221 242 1221 242 1136 c 256,25,26
 242 1051 242 1051 295 994 c 128,-1,27
 348 937 348 937 432 937 c 256,16,17
1097 99 m 128,-1,29
 990 206 990 206 990 365 c 256,30,31
 990 524 990 524 1097 631 c 128,-1,32
 1204 738 1204 738 1363 738 c 256,33,34
 1522 738 1522 738 1629 631 c 128,-1,35
 1736 524 1736 524 1736 365 c 256,36,37
 1736 206 1736 206 1629 99 c 128,-1,38
 1522 -8 1522 -8 1363 -8 c 256,39,28
 1204 -8 1204 -8 1097 99 c 128,-1,29
1358 172 m 256,40,41
 1440 172 1440 172 1492 227.5 c 128,-1,42
 1544 283 1544 283 1544 366 c 0,43,44
 1544 448 1544 448 1492 503.5 c 128,-1,45
 1440 559 1440 559 1357 559 c 0,46,47
 1276 559 1276 559 1224 503.5 c 128,-1,48
 1172 448 1172 448 1172 366 c 0,49,50
 1172 283 1172 283 1224 227.5 c 128,-1,51
 1276 172 1276 172 1358 172 c 256,40,41
EndSplineSet
EndChar

StartChar: ampersand
Encoding: 38 38 9
Width: 1642
GlyphClass: 2
Flags: W
LayerCount: 2
Fore
SplineSet
1500 0 m 1,0,-1
 1159 0 l 1,1,-1
 1036 150 l 1,2,3
 947 70 947 70 847 32 c 128,-1,4
 747 -6 747 -6 609 -6 c 0,5,6
 335 -6 335 -6 197 148 c 0,7,8
 90 267 90 267 90 422 c 0,9,10
 90 563 90 563 174 675.5 c 128,-1,11
 258 788 258 788 425 871 c 1,12,13
 350 960 350 960 317 1040.5 c 128,-1,14
 284 1121 284 1121 284 1193 c 0,15,16
 284 1326 284 1326 390.5 1418.5 c 128,-1,17
 497 1511 497 1511 694 1511 c 0,18,19
 884 1511 884 1511 986 1414 c 128,-1,20
 1088 1317 1088 1317 1088 1177 c 0,21,22
 1088 1088 1088 1088 1035 1008 c 128,-1,23
 982 928 982 928 821 827 c 1,24,-1
 1025 558 l 1,25,26
 1061 622 1061 622 1097 745 c 1,27,-1
 1341 667 l 1,28,29
 1303 532 1303 532 1275 469.5 c 128,-1,30
 1247 407 1247 407 1205 355 c 1,31,-1
 1500 0 l 1,0,-1
681 996 m 1,32,-1
 757 1054 l 2,33,34
 831 1109 831 1109 831 1173 c 0,35,36
 831 1227 831 1227 795.5 1260 c 128,-1,37
 760 1293 760 1293 691 1293 c 0,38,39
 624 1293 624 1293 591 1264.5 c 128,-1,40
 558 1236 558 1236 558 1192 c 0,41,42
 558 1140 558 1140 612 1076 c 2,43,-1
 681 996 l 1,32,-1
571 691 m 1,44,45
 474 642 474 642 426 573 c 128,-1,46
 378 504 378 504 378 432 c 0,47,48
 378 341 378 341 437.5 283.5 c 128,-1,49
 497 226 497 226 597 226 c 0,50,51
 663 226 663 226 724 252 c 128,-1,52
 785 278 785 278 857 338 c 1,53,-1
 571 691 l 1,44,45
EndSplineSet
EndChar

StartChar: quotesingle
Encoding: 39 39 10
Width: 500
GlyphClass: 2
Flags: W
LayerCount: 2
Fore
SplineSet
267 1098 m 1,0,-1
 157 1098 l 1,1,-1
 104 1474 l 2,2,3
 101 1493 101 1493 101 1500 c 0,4,5
 101 1529 101 1529 125 1558 c 128,-1,6
 149 1587 149 1587 211 1587 c 0,7,8
 271 1587 271 1587 297 1558.5 c 128,-1,9
 323 1530 323 1530 323 1501 c 0,10,11
 323 1496 323 1496 321 1478 c 2,12,-1
 267 1098 l 1,0,-1
EndSplineSet
EndChar

StartChar: parenleft
Encoding: 40 40 11
Width: 944
GlyphClass: 2
Flags: W
LayerCount: 2
Fore
SplineSet
96 601 m 0,0,1
 98 809 98 809 152 998 c 0,2,3
 207 1195 207 1195 321 1373 c 0,4,5
 390 1482 390 1482 446 1545 c 2,6,-1
 481 1583 l 1,7,-1
 760 1583 l 1,8,9
 752 1568 752 1568 733 1546 c 0,10,11
 702 1512 702 1512 689 1494 c 0,12,13
 578 1325 578 1325 509 1124 c 128,-1,14
 440 923 440 923 440 680 c 0,15,16
 440 640 440 640 441 601 c 0,17,18
 440 563 440 563 440 522 c 0,19,20
 440 278 440 278 509 79 c 128,-1,21
 578 -120 578 -120 689 -288 c 0,22,23
 702 -306 702 -306 733 -341 c 0,24,25
 752 -363 752 -363 760 -380 c 1,26,-1
 481 -380 l 1,27,-1
 446 -341 l 2,28,29
 390 -277 390 -277 321 -170 c 0,30,31
 207 8 207 8 151 205 c 0,32,33
 98 393 98 393 96 601 c 0,0,1
EndSplineSet
EndChar

StartChar: parenright
Encoding: 41 41 12
Width: 965
GlyphClass: 2
Flags: W
LayerCount: 2
Fore
SplineSet
709 205 m 0,1,2
 653 8 653 8 539 -170 c 0,3,4
 470 -277 470 -277 414 -341 c 2,5,-1
 379 -380 l 1,6,-1
 100 -380 l 1,7,8
 108 -363 108 -363 127 -341 c 0,9,10
 158 -306 158 -306 171 -288 c 0,11,12
 282 -120 282 -120 351 79 c 128,-1,13
 420 278 420 278 420 522 c 0,14,15
 420 563 420 563 419 601 c 0,16,17
 420 640 420 640 420 680 c 0,18,19
 420 923 420 923 351 1124 c 128,-1,20
 282 1325 282 1325 171 1494 c 0,21,22
 158 1512 158 1512 127 1546 c 0,23,24
 108 1568 108 1568 100 1583 c 1,25,-1
 379 1583 l 1,26,-1
 414 1545 l 2,27,28
 470 1482 470 1482 539 1373 c 0,29,30
 653 1195 653 1195 708 998 c 0,31,32
 762 809 762 809 764 601 c 0,33,0
 762 393 762 393 709 205 c 0,1,2
EndSplineSet
EndChar

StartChar: asterisk
Encoding: 42 42 13
Width: 900
GlyphClass: 2
Flags: W
LayerCount: 2
Fore
SplineSet
328 1265 m 1,0,-1
 99 1344 l 1,1,-1
 131 1442 l 1,2,-1
 359 1359 l 1,3,-1
 359 1600 l 1,4,-1
 459 1600 l 1,5,-1
 459 1359 l 1,6,-1
 686 1445 l 1,7,-1
 724 1349 l 1,8,-1
 489 1260 l 1,9,-1
 634 1065 l 1,10,-1
 559 1000 l 1,11,-1
 407 1200 l 1,12,-1
 259 1000 l 1,13,-1
 179 1044 l 1,14,-1
 328 1265 l 1,0,-1
EndSplineSet
EndChar

StartChar: plus
Encoding: 43 43 14
Width: 1200
GlyphClass: 2
Flags: W
LayerCount: 2
Fore
SplineSet
432 597 m 1,0,-1
 80 597 l 1,1,-1
 80 837 l 1,2,-1
 432 837 l 1,3,-1
 432 1167 l 1,4,-1
 676 1167 l 1,5,-1
 676 837 l 1,6,-1
 1028 837 l 1,7,-1
 1028 597 l 1,8,-1
 676 597 l 1,9,-1
 676 267 l 1,10,-1
 432 267 l 1,11,-1
 432 597 l 1,0,-1
EndSplineSet
EndChar

StartChar: comma
Encoding: 44 44 15
Width: 594
GlyphClass: 2
Flags: W
LayerCount: 2
Fore
SplineSet
151 -120 m 1,1,-1
 201 -210 l 1,2,3
 401 -109 401 -109 401 133 c 2,4,-1
 401 140 l 2,5,6
 401 200 401 200 361 240.5 c 128,-1,7
 321 281 321 281 249 281 c 0,8,9
 181 281 181 281 141 240.5 c 128,-1,10
 101 200 101 200 101 140 c 256,11,12
 101 80 101 80 141 40 c 128,-1,13
 181 0 181 0 251 0 c 2,14,-1
 262 0 l 1,15,0
 232 -89 232 -89 151 -120 c 1,1,-1
EndSplineSet
EndChar

StartChar: hyphen
Encoding: 45 45 16
AltUni2: 0000ad.ffffffff.0
Width: 900
GlyphClass: 2
Flags: W
LayerCount: 2
Fore
SplineSet
80 401 m 1,0,-1
 80 600 l 1,1,-1
 700 600 l 1,2,-1
 700 401 l 1,3,-1
 80 401 l 1,0,-1
EndSplineSet
EndChar

StartChar: period
Encoding: 46 46 17
Width: 581
GlyphClass: 2
Flags: W
LayerCount: 2
Fore
SplineSet
91 140 m 256,0,1
 91 80 91 80 131 40 c 128,-1,2
 171 0 171 0 241 0 c 256,3,4
 311 0 311 0 351 40 c 128,-1,5
 391 80 391 80 391 140 c 256,6,7
 391 200 391 200 351 240.5 c 128,-1,8
 311 281 311 281 239 281 c 0,9,10
 171 281 171 281 131 240.5 c 128,-1,11
 91 200 91 200 91 140 c 256,0,1
EndSplineSet
EndChar

StartChar: slash
Encoding: 47 47 18
Width: 823
GlyphClass: 2
Flags: W
LayerCount: 2
Fore
SplineSet
181 -60 m 1,0,-1
 -14 -60 l 1,1,-1
 534 1444 l 1,2,-1
 729 1444 l 1,3,-1
 181 -60 l 1,0,-1
EndSplineSet
EndChar

StartChar: zero
Encoding: 48 48 19
Width: 1382
GlyphClass: 2
Flags: W
LayerCount: 2
Fore
SplineSet
242 215.5 m 128,-1,1
 92 431 92 431 92 750 c 0,2,3
 92 1070 92 1070 242 1285 c 128,-1,4
 392 1500 392 1500 642 1500 c 0,5,6
 893 1500 893 1500 1042.5 1285 c 128,-1,7
 1192 1070 1192 1070 1192 750 c 256,8,9
 1192 430 1192 430 1042.5 215 c 128,-1,10
 893 0 893 0 642 0 c 0,11,0
 392 0 392 0 242 215.5 c 128,-1,1
643 280 m 0,12,13
 742 280 742 280 817 415 c 128,-1,14
 892 550 892 550 892 750 c 256,15,16
 892 950 892 950 817 1085 c 128,-1,17
 742 1220 742 1220 641 1220 c 0,18,19
 542 1220 542 1220 467 1085 c 128,-1,20
 392 950 392 950 392 750 c 256,21,22
 392 550 392 550 467 415 c 128,-1,23
 542 280 542 280 643 280 c 0,12,13
EndSplineSet
EndChar

StartChar: one
Encoding: 49 49 20
Width: 947
GlyphClass: 2
Flags: W
LayerCount: 2
Fore
SplineSet
447 1500 m 1,0,-1
 447 1501 l 1,1,-1
 746 1501 l 1,2,-1
 746 0 l 1,3,-1
 447 0 l 1,4,-1
 447 1100 l 1,5,-1
 247 900 l 1,6,-1
 47 1100 l 1,7,-1
 447 1500 l 1,0,-1
EndSplineSet
EndChar

StartChar: two
Encoding: 50 50 21
Width: 1300
GlyphClass: 2
Flags: W
LayerCount: 2
Fore
SplineSet
599 1500 m 0,0,1
 819 1500 819 1500 959.5 1389.5 c 128,-1,2
 1100 1279 1100 1279 1100 1060 c 0,3,4
 1100 800 1100 800 900.5 584 c 128,-1,5
 701 368 701 368 571 300 c 1,6,-1
 1111 300 l 1,7,-1
 1111 0 l 1,8,-1
 100 0 l 1,9,-1
 100 300 l 1,10,11
 200 300 200 300 480 550 c 128,-1,12
 760 800 760 800 805 905 c 128,-1,13
 850 1010 850 1010 800 1115 c 128,-1,14
 750 1220 750 1220 560 1220 c 0,15,16
 380 1220 380 1220 280 1100 c 1,17,-1
 80 1300 l 1,18,19
 180 1400 180 1400 275 1450 c 128,-1,20
 370 1500 370 1500 599 1500 c 0,0,1
EndSplineSet
EndChar

StartChar: three
Encoding: 51 51 22
Width: 1400
GlyphClass: 2
Flags: W
LayerCount: 2
Fore
SplineSet
1032 760 m 1,0,1
 1059 750 1059 750 1081 740 c 0,2,3
 1236 670 1236 670 1236 440 c 0,4,5
 1236 260 1236 260 1070.5 130 c 128,-1,6
 905 0 905 0 685 0 c 0,7,8
 476 0 476 0 336 60 c 128,-1,9
 196 120 196 120 96 220 c 1,10,-1
 296 420 l 1,11,12
 396 300 396 300 636 280 c 1,13,14
 836 280 836 280 885.5 365 c 128,-1,15
 935 450 935 450 885.5 535 c 128,-1,16
 836 620 836 620 537 630 c 1,17,-1
 537 900 l 1,18,19
 836 880 836 880 885.5 965 c 128,-1,20
 935 1050 935 1050 885.5 1135 c 128,-1,21
 836 1220 836 1220 636 1220 c 0,22,23
 446 1220 446 1220 346 1100 c 1,24,-1
 146 1300 l 1,25,26
 246 1400 246 1400 361 1450 c 128,-1,27
 476 1500 476 1500 685 1500 c 0,28,29
 905 1500 905 1500 1050.5 1370 c 128,-1,30
 1196 1240 1196 1240 1196 1060 c 0,31,32
 1196 850 1196 850 1061 775 c 0,33,34
 1048 768 1048 768 1032 760 c 1,0,1
EndSplineSet
EndChar

StartChar: four
Encoding: 52 52 23
Width: 1411
GlyphClass: 2
Flags: W
LayerCount: 2
Fore
SplineSet
761 1499 m 1,0,-1
 761 1501 l 1,1,-1
 1060 1501 l 1,2,-1
 1060 629 l 1,3,-1
 1262 629 l 1,4,-1
 1262 330 l 1,5,-1
 1060 330 l 1,6,-1
 1060 0 l 1,7,-1
 761 0 l 1,8,-1
 761 330 l 1,9,-1
 80 330 l 1,10,-1
 80 629 l 1,11,-1
 90 629 l 1,12,-1
 81 639 l 1,13,-1
 761 1499 l 1,0,-1
761 629 m 1,14,-1
 761 1107 l 1,15,-1
 396 629 l 1,16,-1
 761 629 l 1,14,-1
EndSplineSet
EndChar

StartChar: five
Encoding: 53 53 24
Width: 1302
GlyphClass: 2
Flags: W
LayerCount: 2
Fore
SplineSet
1055 1500 m 1,0,-1
 1055 1220 l 1,1,-1
 435 1220 l 1,2,-1
 435 1010 l 1,3,-1
 555 1010 l 2,4,5
 854 1010 854 1010 1009 875 c 1,6,7
 1164 720 1164 720 1164 470 c 0,8,9
 1164 280 1164 280 1013.5 140 c 128,-1,10
 863 0 863 0 643 0 c 0,11,12
 434 0 434 0 294 60 c 128,-1,13
 154 120 154 120 54 220 c 1,14,-1
 254 420 l 1,15,16
 354 300 354 300 574 290 c 1,17,18
 844 290 844 290 869 488 c 1,19,20
 863 615 863 615 777 674 c 1,21,22
 731 723 731 723 455 730 c 1,23,-1
 135 730 l 1,24,-1
 135 1500 l 1,25,-1
 1055 1500 l 1,0,-1
EndSplineSet
EndChar

StartChar: six
Encoding: 54 54 25
Width: 1388
GlyphClass: 2
Flags: W
LayerCount: 2
Fore
SplineSet
98 729 m 0,0,1
 98 1090 98 1090 253 1292.5 c 128,-1,2
 408 1495 408 1495 668 1499 c 1,3,4
 928 1493 928 1493 1088 1350 c 1,5,-1
 938 1150 l 1,6,7
 828 1210 828 1210 681 1210 c 0,8,9
 551 1210 551 1210 474 1125 c 128,-1,10
 397 1040 397 1040 388 870 c 1,11,12
 540 1000 540 1000 688 1000 c 0,13,14
 948 1000 948 1000 1073 865 c 128,-1,15
 1198 730 1198 730 1198 500 c 0,16,17
 1198 290 1198 290 1058 145 c 128,-1,18
 918 0 918 0 658 0 c 1,19,20
 358 10 358 10 228 203 c 128,-1,21
 98 396 98 396 98 729 c 0,0,1
428 499 m 1,22,23
 438 290 438 290 668 281 c 1,24,25
 898 290 898 290 908 480 c 1,26,27
 898 730 898 730 658 730 c 1,28,29
 448 720 448 720 428 499 c 1,22,23
EndSplineSet
EndChar

StartChar: seven
Encoding: 55 55 26
Width: 1262
GlyphClass: 2
Flags: W
LayerCount: 2
Fore
SplineSet
249 0 m 1,0,-1
 250 100 l 1,1,-1
 719 1220 l 1,2,-1
 77 1220 l 1,3,-1
 76 1500 l 1,4,-1
 1100 1500 l 1,5,-1
 1100 1390 l 1,6,-1
 541 0 l 1,7,-1
 249 0 l 1,0,-1
EndSplineSet
EndChar

StartChar: eight
Encoding: 56 56 27
Width: 1292
GlyphClass: 2
Flags: W
LayerCount: 2
Fore
SplineSet
590 621 m 1,0,1
 458 600 458 600 421 535 c 0,2,3
 371 450 371 450 421 365 c 0,4,5
 466 287 466 287 590 281 c 1,6,7
 714 287 714 287 760 365 c 0,8,9
 809 450 809 450 760 535 c 0,10,11
 722 600 722 600 590 621 c 1,0,1
590 896 m 1,12,13
 722 900 722 900 760 965 c 0,14,15
 809 1050 809 1050 760 1135 c 0,16,17
 714 1213 714 1213 590 1219 c 1,18,19
 466 1213 466 1213 421 1135 c 0,20,21
 371 1050 371 1050 421 965 c 0,22,23
 458 900 458 900 590 896 c 1,12,13
906 760 m 1,24,25
 933 750 933 750 955 740 c 0,26,27
 1110 670 1110 670 1110 440 c 256,28,29
 1110 210 1110 210 964.5 105 c 128,-1,30
 819 0 819 0 589 0 c 0,31,32
 361 0 361 0 215.5 105 c 128,-1,33
 70 210 70 210 70 440 c 256,34,35
 70 670 70 670 225 740 c 0,36,37
 247 750 247 750 274 760 c 1,38,39
 258 768 258 768 245 775 c 0,40,41
 110 850 110 850 110 1060 c 256,42,43
 110 1270 110 1270 240.5 1385 c 128,-1,44
 371 1500 371 1500 591 1500 c 0,45,46
 809 1500 809 1500 939.5 1385 c 128,-1,47
 1070 1270 1070 1270 1070 1060 c 256,48,49
 1070 850 1070 850 935 775 c 0,50,51
 922 768 922 768 906 760 c 1,24,25
EndSplineSet
EndChar

StartChar: nine
Encoding: 57 57 28
Width: 1328
GlyphClass: 2
Flags: W
LayerCount: 2
Fore
SplineSet
1142 835 m 1,0,1
 1136 356 1136 356 961.5 170 c 128,-1,2
 787 -16 787 -16 528 6 c 1,3,4
 270 37 270 37 125 196 c 1,5,-1
 294 380 l 1,6,7
 398 309 398 309 544 295 c 0,8,9
 673 282 673 282 758 359 c 128,-1,10
 843 436 843 436 869 604 c 1,11,12
 705 490 705 490 558 504 c 0,13,14
 299 530 299 530 188 676.5 c 128,-1,15
 77 823 77 823 100 1052 c 0,16,17
 121 1261 121 1261 274.5 1391.5 c 128,-1,18
 428 1522 428 1522 687 1496 c 1,19,20
 914 1457 914 1457 1024.5 1297 c 128,-1,21
 1135 1137 1135 1137 1142 835 c 1,0,1
842 1000 m 1,22,23
 832 1209 832 1209 602 1218 c 1,24,25
 372 1209 372 1209 362 1019 c 1,26,27
 372 769 372 769 612 769 c 1,28,29
 822 779 822 779 842 1000 c 1,22,23
EndSplineSet
EndChar

StartChar: colon
Encoding: 58 58 29
Width: 586
GlyphClass: 2
Flags: W
LayerCount: 2
Fore
SplineSet
96 140 m 256,0,1
 96 80 96 80 136 40 c 128,-1,2
 176 0 176 0 246 0 c 256,3,4
 316 0 316 0 356 40 c 128,-1,5
 396 80 396 80 396 140 c 256,6,7
 396 200 396 200 356 240.5 c 128,-1,8
 316 281 316 281 244 281 c 0,9,10
 176 281 176 281 136 240.5 c 128,-1,11
 96 200 96 200 96 140 c 256,0,1
96 856 m 256,12,13
 96 796 96 796 136 756 c 128,-1,14
 176 716 176 716 246 716 c 256,15,16
 316 716 316 716 356 756 c 128,-1,17
 396 796 396 796 396 856 c 256,18,19
 396 916 396 916 356 956.5 c 128,-1,20
 316 997 316 997 244 997 c 0,21,22
 176 997 176 997 136 956.5 c 128,-1,23
 96 916 96 916 96 856 c 256,12,13
EndSplineSet
EndChar

StartChar: semicolon
Encoding: 59 59 30
AltUni2: 00037e.ffffffff.0
Width: 602
GlyphClass: 2
Flags: W
LayerCount: 2
Fore
SplineSet
147 -120 m 1,1,-1
 197 -210 l 1,2,3
 397 -109 397 -109 397 133 c 2,4,-1
 397 140 l 2,5,6
 397 200 397 200 357 240.5 c 128,-1,7
 317 281 317 281 245 281 c 0,8,9
 177 281 177 281 137 240.5 c 128,-1,10
 97 200 97 200 97 140 c 256,11,12
 97 80 97 80 137 40 c 128,-1,13
 177 0 177 0 247 0 c 2,14,-1
 258 0 l 1,15,0
 228 -89 228 -89 147 -120 c 1,1,-1
102 860 m 256,16,17
 102 800 102 800 142 760 c 128,-1,18
 182 720 182 720 252 720 c 256,19,20
 322 720 322 720 362 760 c 128,-1,21
 402 800 402 800 402 860 c 256,22,23
 402 920 402 920 362 960.5 c 128,-1,24
 322 1001 322 1001 250 1001 c 0,25,26
 182 1001 182 1001 142 960.5 c 128,-1,27
 102 920 102 920 102 860 c 256,16,17
EndSplineSet
EndChar

StartChar: less
Encoding: 60 60 31
Width: 1148
GlyphClass: 2
Flags: W
LayerCount: 2
Fore
SplineSet
996 1070 m 1,0,-1
 416 750 l 1,1,-1
 996 430 l 1,2,-1
 996 200 l 1,3,-1
 48 721 l 1,4,-1
 48 786 l 1,5,-1
 996 1300 l 1,6,-1
 996 1070 l 1,0,-1
EndSplineSet
EndChar

StartChar: equal
Encoding: 61 61 32
Width: 1200
GlyphClass: 2
Flags: W
LayerCount: 2
Fore
SplineSet
100 599 m 1,0,-1
 1000 599 l 1,1,-1
 1000 400 l 1,2,-1
 100 400 l 1,3,-1
 100 599 l 1,0,-1
100 1000 m 1,4,-1
 1000 1000 l 1,5,-1
 1000 801 l 1,6,-1
 100 801 l 1,7,-1
 100 1000 l 1,4,-1
EndSplineSet
EndChar

StartChar: greater
Encoding: 62 62 33
Width: 1154
GlyphClass: 2
Flags: W
LayerCount: 2
Fore
SplineSet
100 1300 m 1,0,-1
 1048 786 l 1,1,-1
 1048 721 l 1,2,-1
 100 200 l 1,3,-1
 100 430 l 1,4,-1
 680 750 l 1,5,-1
 100 1070 l 1,6,-1
 100 1300 l 1,0,-1
EndSplineSet
EndChar

StartChar: question
Encoding: 63 63 34
Width: 1249
GlyphClass: 2
Flags: W
LayerCount: 2
Fore
SplineSet
589 1500 m 0,0,1
 769 1500 769 1500 929.5 1379.5 c 128,-1,2
 1090 1259 1090 1259 1090 1060 c 1,3,4
 1080 920 1080 920 1015 815 c 128,-1,5
 950 710 950 710 805 670 c 128,-1,6
 660 630 660 630 651 400 c 1,7,-1
 371 400 l 1,8,9
 371 590 371 590 436 715 c 128,-1,10
 501 840 501 840 664 876 c 1,11,12
 801 900 801 900 806 1078 c 1,13,14
 771 1215 771 1215 530 1220 c 0,15,16
 350 1220 350 1220 250 1100 c 1,17,-1
 50 1300 l 1,18,19
 150 1400 150 1400 265 1450 c 128,-1,20
 380 1500 380 1500 589 1500 c 0,0,1
371 140 m 256,21,22
 371 80 371 80 411 40 c 128,-1,23
 451 0 451 0 521 0 c 256,24,25
 591 0 591 0 631 40 c 128,-1,26
 671 80 671 80 671 140 c 256,27,28
 671 200 671 200 631 240.5 c 128,-1,29
 591 281 591 281 519 281 c 0,30,31
 451 281 451 281 411 240.5 c 128,-1,32
 371 200 371 200 371 140 c 256,21,22
EndSplineSet
EndChar

StartChar: at
Encoding: 64 64 35
Width: 2189
GlyphClass: 2
Flags: W
LayerCount: 2
Fore
SplineSet
651 884 m 1,0,1
 841 1014 841 1014 1111 1024 c 1,2,3
 1291 1024 1291 1024 1396 924 c 128,-1,4
 1501 824 1501 824 1501 624 c 2,5,-1
 1501 232 l 1,6,7
 1612 121 1612 121 1677.5 260.5 c 128,-1,8
 1743 400 1743 400 1735 541 c 1,9,10
 1732 847 1732 847 1567.5 1048 c 128,-1,11
 1403 1249 1403 1249 1043 1250 c 0,12,13
 700 1250 700 1250 526.5 1045 c 128,-1,14
 353 840 353 840 345 543 c 1,15,16
 353 134 353 134 600 -48 c 128,-1,17
 847 -230 847 -230 1442 -200 c 1,18,-1
 1442 -400 l 1,19,20
 662 -430 662 -430 382 -168.5 c 128,-1,21
 102 93 102 93 92 546 c 1,22,23
 92 880 92 880 327.5 1165 c 128,-1,24
 563 1450 563 1450 1043 1450 c 0,25,26
 1522 1450 1522 1450 1751 1189.5 c 128,-1,27
 1980 929 1980 929 1993 538 c 1,28,29
 1953 -11 1953 -11 1643 -80 c 1,30,31
 1369 -91 1369 -91 1221 104 c 1,32,33
 1099 24 1099 24 1001 24 c 0,34,35
 801 24 801 24 701 109 c 128,-1,36
 601 194 601 194 601 344 c 0,37,38
 601 484 601 484 695.5 594 c 128,-1,39
 790 704 790 704 1001 704 c 0,40,41
 1098 704 1098 704 1221 644 c 1,42,-1
 1221 674 l 2,43,44
 1219 784 1219 784 1061 794 c 1,45,46
 881 794 881 794 781 734 c 1,47,-1
 651 884 l 1,0,1
1221 324 m 1,48,-1
 1221 437 l 1,49,50
 1181 514 1181 514 1031 514 c 1,51,52
 851 494 851 494 841 374 c 1,53,54
 851 255 851 255 1031 245 c 1,55,56
 1181 245 1181 245 1221 324 c 1,48,-1
EndSplineSet
EndChar

StartChar: A
Encoding: 65 65 36
Width: 1644
GlyphClass: 2
Flags: W
LayerCount: 2
Fore
SplineSet
44 0 m 1,0,-1
 644 1500 l 1,1,-1
 944 1500 l 1,2,-1
 1543 1 l 1,3,-1
 1224 0 l 1,4,-1
 1134 230 l 1,5,-1
 454 230 l 1,6,-1
 364 0 l 1,7,-1
 44 0 l 1,0,-1
802 1100 m 1,8,-1
 574 530 l 1,9,-1
 1024 530 l 1,10,-1
 802 1100 l 1,8,-1
EndSplineSet
EndChar

StartChar: B
Encoding: 66 66 37
Width: 1573
GlyphClass: 2
Flags: W
LayerCount: 2
Fore
SplineSet
401 1201 m 1,0,-1
 824 1201 l 1,1,2
 1002 1195 1002 1195 1007 1085 c 1,3,4
 1002 901 1002 901 821 898 c 2,5,-1
 401 898 l 1,6,-1
 401 1201 l 1,0,-1
401 601 m 1,7,-1
 894 601 l 1,8,9
 1102 595 1102 595 1107 451 c 1,10,11
 1102 237 1102 237 891 234 c 2,12,-1
 401 234 l 1,13,-1
 401 601 l 1,7,-1
1296 1058 m 1,14,15
 1275 1477 1275 1477 896 1499 c 1,16,-1
 100 1499 l 1,17,-1
 100 0 l 1,18,-1
 944 -1 l 1,19,20
 1377 24 1377 24 1397 448 c 1,21,22
 1385 659 1385 659 1188 791 c 1,23,24
 1289 858 1289 858 1296 1058 c 1,14,15
EndSplineSet
EndChar

StartChar: C
Encoding: 67 67 38
Width: 1549
GlyphClass: 2
Flags: W
LayerCount: 2
Fore
SplineSet
264.5 215.5 m 128,-1,1
 49 430 49 430 49 753 c 0,2,3
 50 1069 50 1069 265 1284.5 c 128,-1,4
 480 1500 480 1500 798 1500 c 0,5,6
 1119 1500 1119 1500 1349 1300 c 1,7,-1
 1149 1081 l 1,8,9
 996 1201 996 1201 798 1201 c 0,10,11
 596 1200 596 1200 472.5 1075 c 128,-1,12
 349 950 349 950 349 755 c 0,13,14
 350 546 350 546 474 423 c 128,-1,15
 598 300 598 300 800 300 c 256,16,17
 1002 300 1002 300 1149 419 c 1,18,-1
 1349 200 l 1,19,20
 1120 0 1120 0 798 0 c 0,21,0
 480 1 480 1 264.5 215.5 c 128,-1,1
EndSplineSet
EndChar

StartChar: D
Encoding: 68 68 39
Width: 1600
GlyphClass: 2
Flags: W
LayerCount: 2
Fore
SplineSet
423 299 m 1,0,-1
 423 1200 l 1,1,-1
 701 1200 l 2,2,3
 1100 1200 1100 1200 1101 750 c 0,4,5
 1100 300 1100 300 701 299 c 2,6,-1
 423 299 l 1,0,-1
701 0 m 2,7,8
 1401 0 1401 0 1401 750 c 0,9,10
 1401 1501 1401 1501 701 1501 c 2,11,-1
 123 1501 l 1,12,-1
 123 0 l 1,13,-1
 701 0 l 2,7,8
EndSplineSet
EndChar

StartChar: E
Encoding: 69 69 40
Width: 1400
GlyphClass: 2
Flags: W
LayerCount: 2
Fore
SplineSet
119 0 m 1,0,-1
 119 1499 l 1,1,-1
 1221 1500 l 1,2,-1
 1221 1220 l 1,3,-1
 419 1220 l 1,4,-1
 419 900 l 1,5,-1
 1020 900 l 1,6,-1
 1020 621 l 1,7,-1
 419 621 l 1,8,-1
 419 280 l 1,9,-1
 1219 280 l 1,10,-1
 1219 0 l 1,11,-1
 119 0 l 1,0,-1
EndSplineSet
EndChar

StartChar: F
Encoding: 70 70 41
Width: 1272
GlyphClass: 2
Flags: W
LayerCount: 2
Fore
SplineSet
122 0 m 1,0,-1
 122 1500 l 1,1,-1
 1177 1500 l 1,2,-1
 1177 1220 l 1,3,-1
 422 1220 l 1,4,-1
 422 900 l 1,5,-1
 979 900 l 1,6,-1
 979 621 l 1,7,-1
 422 621 l 1,8,-1
 422 0 l 1,9,-1
 122 0 l 1,0,-1
EndSplineSet
EndChar

StartChar: G
Encoding: 71 71 42
Width: 1521
GlyphClass: 2
Flags: W
LayerCount: 2
Fore
SplineSet
257.5 215.5 m 128,-1,1
 42 430 42 430 42 753 c 0,2,3
 43 1069 43 1069 258 1284.5 c 128,-1,4
 473 1500 473 1500 791 1500 c 0,5,6
 1112 1500 1112 1500 1342 1300 c 1,7,-1
 1142 1081 l 1,8,9
 989 1201 989 1201 791 1201 c 0,10,11
 589 1200 589 1200 465.5 1075 c 128,-1,12
 342 950 342 950 342 755 c 0,13,14
 343 546 343 546 467 423 c 128,-1,15
 591 300 591 300 793 300 c 0,16,17
 955 300 955 300 1042 364 c 1,18,-1
 1042 621 l 1,19,-1
 842 620 l 1,20,-1
 842 900 l 1,21,-1
 1342 900 l 1,22,-1
 1342 200 l 1,23,24
 1113 0 1113 0 791 0 c 0,25,0
 473 1 473 1 257.5 215.5 c 128,-1,1
EndSplineSet
EndChar

StartChar: H
Encoding: 72 72 43
Width: 1623
GlyphClass: 2
Flags: W
LayerCount: 2
Fore
SplineSet
123 0 m 1,0,-1
 123 1500 l 1,1,-1
 423 1500 l 1,2,-1
 423 900 l 1,3,-1
 1122 900 l 1,4,-1
 1122 1501 l 1,5,-1
 1422 1501 l 1,6,-1
 1422 1 l 1,7,-1
 1122 0 l 1,8,-1
 1122 620 l 1,9,-1
 423 620 l 1,10,-1
 423 0 l 1,11,-1
 123 0 l 1,0,-1
EndSplineSet
EndChar

StartChar: I
Encoding: 73 73 44
Width: 600
GlyphClass: 2
Flags: W
LayerCount: 2
Fore
SplineSet
123 1501 m 1,0,-1
 422 1501 l 1,1,-1
 422 0 l 1,2,-1
 123 0 l 1,3,-1
 123 1501 l 1,0,-1
EndSplineSet
EndChar

StartChar: J
Encoding: 74 74 45
Width: 849
GlyphClass: 2
Flags: W
LayerCount: 2
Fore
SplineSet
148 280 m 1,0,1
 349 289 349 289 349 499 c 2,2,-1
 349 1500 l 1,3,-1
 650 1500 l 1,4,-1
 649 399 l 2,5,6
 649 220 649 220 539 110 c 128,-1,7
 429 0 429 0 251 0 c 2,8,-1
 49 0 l 1,9,-1
 49 280 l 1,10,-1
 148 280 l 1,0,1
EndSplineSet
EndChar

StartChar: K
Encoding: 75 75 46
Width: 1444
GlyphClass: 2
Flags: W
LayerCount: 2
Fore
SplineSet
126 1500 m 1,0,-1
 426 1500 l 1,1,-1
 426 900 l 1,2,-1
 926 1500 l 1,3,-1
 1263 1500 l 1,4,-1
 676 800 l 1,5,-1
 1386 0 l 1,6,-1
 996 0 l 1,7,-1
 426 648 l 1,8,-1
 426 0 l 1,9,-1
 126 0 l 1,10,-1
 126 1500 l 1,0,-1
EndSplineSet
EndChar

StartChar: L
Encoding: 76 76 47
Width: 1350
GlyphClass: 2
Flags: W
LayerCount: 2
Fore
SplineSet
126 1500 m 1,0,-1
 126 0 l 1,1,-1
 1226 0 l 1,2,-1
 1226 280 l 1,3,-1
 426 280 l 1,4,-1
 426 1500 l 1,5,-1
 126 1500 l 1,0,-1
EndSplineSet
EndChar

StartChar: M
Encoding: 77 77 48
Width: 1800
GlyphClass: 2
Flags: W
LayerCount: 2
Fore
SplineSet
123 0 m 1,0,-1
 123 1500 l 1,1,-1
 223 1500 l 1,2,-1
 873 760 l 1,3,-1
 1524 1500 l 1,4,-1
 1624 1500 l 1,5,-1
 1624 0 l 1,6,-1
 1324 0 l 1,7,-1
 1323 870 l 1,8,-1
 873 370 l 1,9,-1
 423 870 l 1,10,-1
 423 0 l 1,11,-1
 123 0 l 1,0,-1
EndSplineSet
EndChar

StartChar: N
Encoding: 78 78 49
Width: 1651
GlyphClass: 2
Flags: W
LayerCount: 2
Fore
SplineSet
123 0 m 1,0,-1
 123 1500 l 1,1,-1
 223 1500 l 1,2,-1
 1163 560 l 1,3,-1
 1163 1500 l 1,4,-1
 1463 1500 l 1,5,-1
 1463 0 l 1,6,-1
 1353 0 l 1,7,-1
 423 930 l 1,8,-1
 423 0 l 1,9,-1
 123 0 l 1,0,-1
EndSplineSet
EndChar

StartChar: O
Encoding: 79 79 50
Width: 1647
GlyphClass: 2
Flags: W
LayerCount: 2
Fore
SplineSet
262 215.5 m 128,-1,1
 47 431 47 431 47 750 c 0,2,3
 47 1070 47 1070 262 1285 c 128,-1,4
 477 1500 477 1500 797 1500 c 256,5,6
 1117 1500 1117 1500 1332 1285 c 128,-1,7
 1547 1070 1547 1070 1547 750 c 256,8,9
 1547 430 1547 430 1332 215 c 128,-1,10
 1117 0 1117 0 797 0 c 256,11,0
 477 0 477 0 262 215.5 c 128,-1,1
798 280 m 0,12,13
 997 280 997 280 1122 415 c 128,-1,14
 1247 550 1247 550 1247 750 c 256,15,16
 1247 950 1247 950 1122 1085 c 128,-1,17
 997 1220 997 1220 796 1220 c 0,18,19
 597 1220 597 1220 472 1085 c 128,-1,20
 347 950 347 950 347 750 c 256,21,22
 347 550 347 550 472 415 c 128,-1,23
 597 280 597 280 798 280 c 0,12,13
EndSplineSet
EndChar

StartChar: P
Encoding: 80 80 51
Width: 1400
GlyphClass: 2
Flags: W
LayerCount: 2
Fore
SplineSet
123 0 m 1,0,-1
 123 1500 l 1,1,-1
 777 1500 l 2,2,3
 1302 1500 1302 1500 1302 1068 c 0,4,5
 1302 620 1302 620 778 620 c 2,6,-1
 423 620 l 1,7,-1
 423 0 l 1,8,-1
 123 0 l 1,0,-1
423 900 m 1,9,-1
 843 900 l 2,10,11
 1024 903 1024 903 1029 1065 c 1,12,13
 1024 1213 1024 1213 846 1219 c 1,14,-1
 423 1219 l 1,15,-1
 423 900 l 1,9,-1
EndSplineSet
EndChar

StartChar: Q
Encoding: 81 81 52
Width: 1652
GlyphClass: 2
Flags: W
LayerCount: 2
Fore
SplineSet
1187 495 m 1,0,1
 1252 606 1252 606 1252 750 c 0,2,3
 1252 950 1252 950 1127 1085 c 128,-1,4
 1002 1220 1002 1220 801 1220 c 0,5,6
 602 1220 602 1220 477 1085 c 128,-1,7
 352 950 352 950 352 750 c 256,8,9
 352 550 352 550 477 415 c 128,-1,10
 602 280 602 280 803 280 c 0,11,12
 886 280 886 280 956 303 c 1,13,-1
 843 450 l 1,14,-1
 1081 633 l 1,15,-1
 1187 495 l 1,0,1
1135 71 m 1,16,17
 986 0 986 0 802 0 c 0,18,19
 482 0 482 0 267 215.5 c 128,-1,20
 52 431 52 431 52 750 c 0,21,22
 52 1070 52 1070 267 1285 c 128,-1,23
 482 1500 482 1500 802 1500 c 256,24,25
 1122 1500 1122 1500 1337 1285 c 128,-1,26
 1552 1070 1552 1070 1552 750 c 0,27,28
 1552 458 1552 458 1373 254 c 1,29,-1
 1501 88 l 1,30,-1
 1263 -95 l 1,31,-1
 1135 71 l 1,16,17
EndSplineSet
EndChar

StartChar: R
Encoding: 82 82 53
Width: 1433
GlyphClass: 2
Flags: W
LayerCount: 2
Fore
SplineSet
423 900 m 1,0,-1
 843 900 l 2,1,2
 1024 903 1024 903 1029 1065 c 1,3,4
 1024 1213 1024 1213 846 1219 c 1,5,-1
 423 1219 l 1,6,-1
 423 900 l 1,0,-1
1026 654 m 1,7,-1
 1400 0 l 1,8,-1
 1056 0 l 1,9,-1
 697 620 l 1,10,-1
 423 620 l 1,11,-1
 423 0 l 1,12,-1
 123 0 l 1,13,-1
 123 1500 l 1,14,-1
 777 1500 l 2,15,16
 1302 1500 1302 1500 1302 1068 c 0,17,18
 1302 743 1302 743 1026 654 c 1,7,-1
EndSplineSet
EndChar

StartChar: S
Encoding: 83 83 54
Width: 1315
GlyphClass: 2
Flags: W
LayerCount: 2
Fore
SplineSet
935 1450 m 128,-1,1
 1050 1400 1050 1400 1150 1300 c 1,2,-1
 950 1100 l 1,3,4
 850 1220 850 1220 670 1220 c 256,5,6
 490 1220 490 1220 440 1135 c 128,-1,7
 390 1050 390 1050 440 990 c 128,-1,8
 490 930 490 930 670 900 c 1,9,10
 860 880 860 880 1015 775 c 128,-1,11
 1170 670 1170 670 1170 440 c 0,12,13
 1170 260 1170 260 1004.5 130 c 128,-1,14
 839 0 839 0 619 0 c 0,15,16
 410 0 410 0 270 60 c 128,-1,17
 130 120 130 120 30 220 c 1,18,-1
 230 420 l 1,19,20
 330 300 330 300 570 280 c 1,21,22
 770 280 770 280 819.5 365 c 128,-1,23
 869 450 869 450 819.5 535 c 128,-1,24
 770 620 770 620 570 640 c 0,25,26
 390 660 390 660 240 750 c 128,-1,27
 90 840 90 840 90 1060 c 0,28,29
 90 1259 90 1259 260.5 1379.5 c 128,-1,30
 431 1500 431 1500 611 1500 c 0,31,0
 820 1500 820 1500 935 1450 c 128,-1,1
EndSplineSet
EndChar

StartChar: T
Encoding: 84 84 55
Width: 1447
GlyphClass: 2
Flags: W
LayerCount: 2
Fore
SplineSet
47 1500 m 1,0,-1
 47 1220 l 1,1,-1
 547 1220 l 1,2,-1
 547 0 l 1,3,-1
 847 0 l 1,4,-1
 847 1220 l 1,5,-1
 1347 1220 l 1,6,-1
 1347 1500 l 1,7,-1
 47 1500 l 1,0,-1
EndSplineSet
EndChar

StartChar: U
Encoding: 85 85 56
Width: 1601
GlyphClass: 2
Flags: W
LayerCount: 2
Fore
SplineSet
100 1500 m 1,0,-1
 100 550 l 2,1,2
 100 320 100 320 285 160 c 128,-1,3
 470 0 470 0 750 0 c 256,4,5
 1030 0 1030 0 1215 160 c 128,-1,6
 1400 320 1400 320 1400 550 c 2,7,-1
 1400 1500 l 1,8,-1
 1100 1500 l 1,9,-1
 1100 630 l 2,10,11
 1100 460 1100 460 1000 380 c 128,-1,12
 900 300 900 300 750 300 c 256,13,14
 600 300 600 300 500 380 c 128,-1,15
 400 460 400 460 400 630 c 2,16,-1
 400 1500 l 1,17,-1
 100 1500 l 1,0,-1
EndSplineSet
EndChar

StartChar: V
Encoding: 86 86 57
Width: 1657
GlyphClass: 2
Flags: W
LayerCount: 2
Fore
SplineSet
31 1500 m 1,0,-1
 632 0 l 1,1,-1
 932 0 l 1,2,-1
 1531 1500 l 1,3,-1
 1211 1500 l 1,4,-1
 777 401 l 1,5,-1
 351 1500 l 1,6,-1
 31 1500 l 1,0,-1
EndSplineSet
EndChar

StartChar: W
Encoding: 87 87 58
Width: 2134
GlyphClass: 2
Flags: W
LayerCount: 2
Fore
SplineSet
1335 0 m 1,0,-1
 1635 0 l 1,1,-1
 2035 1500 l 1,2,-1
 1715 1500 l 1,3,-1
 1455 480 l 1,4,-1
 1195 1500 l 1,5,-1
 885 1500 l 1,6,-1
 615 480 l 1,7,-1
 354 1500 l 1,8,-1
 34 1500 l 1,9,-1
 435 0 l 1,10,-1
 735 0 l 1,11,-1
 1035 1100 l 1,12,-1
 1335 0 l 1,0,-1
EndSplineSet
EndChar

StartChar: X
Encoding: 88 88 59
Width: 1616
GlyphClass: 2
Flags: W
LayerCount: 2
Fore
SplineSet
617 781 m 1,0,-1
 92 1500 l 1,1,-1
 444 1500 l 1,2,-1
 794 1023 l 1,3,-1
 1144 1500 l 1,4,-1
 1496 1500 l 1,5,-1
 971 781 l 1,6,-1
 1544 0 l 1,7,-1
 1188 0 l 1,8,-1
 794 539 l 1,9,-1
 400 0 l 1,10,-1
 44 0 l 1,11,-1
 617 781 l 1,0,-1
EndSplineSet
EndChar

StartChar: Y
Encoding: 89 89 60
Width: 1534
GlyphClass: 2
Flags: W
LayerCount: 2
Fore
SplineSet
35 1500 m 1,0,-1
 387 1500 l 1,1,-1
 735 1010 l 1,2,-1
 1091 1500 l 1,3,-1
 1435 1500 l 1,4,-1
 885 750 l 1,5,-1
 885 0 l 1,6,-1
 585 0 l 1,7,-1
 585 750 l 1,8,-1
 35 1500 l 1,0,-1
EndSplineSet
EndChar

StartChar: Z
Encoding: 90 90 61
Width: 1475
GlyphClass: 2
Flags: W
LayerCount: 2
Fore
SplineSet
1299 0 m 1,0,-1
 98 0 l 1,1,-1
 99 100 l 1,2,-1
 798 1220 l 1,3,-1
 99 1220 l 1,4,-1
 98 1500 l 1,5,-1
 1299 1500 l 1,6,-1
 1299 1390 l 1,7,-1
 597 280 l 1,8,-1
 1299 280 l 1,9,-1
 1299 0 l 1,0,-1
EndSplineSet
EndChar

StartChar: bracketleft
Encoding: 91 91 62
Width: 758
GlyphClass: 2
Flags: W
LayerCount: 2
Fore
SplineSet
99 -400 m 1,0,-1
 99 1899 l 1,1,-1
 379 1899 l 1,2,-1
 600 1900 l 1,3,-1
 601 1630 l 1,4,-1
 379 1630 l 1,5,-1
 379 -130 l 1,6,-1
 600 -130 l 1,7,-1
 600 -400 l 1,8,-1
 99 -400 l 1,0,-1
EndSplineSet
EndChar

StartChar: backslash
Encoding: 92 92 63
Width: 823
GlyphClass: 2
Flags: W
LayerCount: 2
Fore
SplineSet
36 1444 m 1,0,-1
 231 1444 l 1,1,-1
 779 -60 l 1,2,-1
 584 -60 l 1,3,-1
 36 1444 l 1,0,-1
EndSplineSet
EndChar

StartChar: bracketright
Encoding: 93 93 64
Width: 800
GlyphClass: 2
Flags: W
LayerCount: 2
Fore
SplineSet
100 -400 m 1,0,-1
 100 -130 l 1,1,-1
 321 -130 l 1,2,-1
 321 1630 l 1,3,-1
 99 1630 l 1,4,-1
 100 1900 l 1,5,-1
 321 1899 l 1,6,-1
 601 1899 l 1,7,-1
 601 -400 l 1,8,-1
 100 -400 l 1,0,-1
EndSplineSet
EndChar

StartChar: asciicircum
Encoding: 94 94 65
Width: 1000
GlyphClass: 2
Flags: W
LayerCount: 2
Fore
SplineSet
100 1252 m 1,0,-1
 453 1752 l 1,1,-1
 802 1252 l 1,2,-1
 701 1252 l 1,3,-1
 451 1503 l 1,4,-1
 202 1252 l 1,5,-1
 100 1252 l 1,0,-1
EndSplineSet
EndChar

StartChar: underscore
Encoding: 95 95 66
Width: 1300
GlyphClass: 2
Flags: W
LayerCount: 2
Fore
SplineSet
100 -100 m 1,0,-1
 1124 -100 l 1,1,-1
 1124 -200 l 1,2,-1
 100 -200 l 1,3,-1
 100 -100 l 1,0,-1
EndSplineSet
EndChar

StartChar: a
Encoding: 97 97 67
Width: 1099
GlyphClass: 2
Flags: W
LayerCount: 2
Fore
SplineSet
119 880 m 1,0,1
 309 1000 309 1000 559 1000 c 0,2,3
 739 1000 739 1000 844 900 c 128,-1,4
 949 800 949 800 949 600 c 2,5,-1
 949 0 l 1,6,-1
 669 0 l 1,7,-1
 669 80 l 1,8,9
 547 0 547 0 449 0 c 0,10,11
 249 0 249 0 149 85 c 128,-1,12
 49 170 49 170 49 320 c 0,13,14
 49 460 49 460 143.5 570 c 128,-1,15
 238 680 238 680 449 680 c 0,16,17
 546 680 546 680 669 620 c 1,18,-1
 669 650 l 2,19,20
 667 760 667 760 509 770 c 1,21,22
 329 770 329 770 229 710 c 1,23,-1
 119 880 l 1,0,1
669 300 m 1,24,-1
 669 413 l 1,25,26
 629 490 629 490 479 490 c 1,27,28
 299 470 299 470 289 350 c 1,29,30
 299 231 299 231 479 221 c 1,31,32
 629 221 629 221 669 300 c 1,24,-1
EndSplineSet
EndChar

StartChar: b
Encoding: 98 98 68
Width: 1191
GlyphClass: 2
Flags: W
LayerCount: 2
Fore
SplineSet
371 1500 m 1,0,-1
 371 919 l 1,1,2
 441 990 441 990 591 1000 c 1,3,4
 821 1000 821 1000 956 850 c 128,-1,5
 1091 700 1091 700 1091 500 c 256,6,7
 1091 300 1091 300 956 150 c 128,-1,8
 821 0 821 0 591 0 c 0,9,10
 483 0 483 0 371 80 c 1,11,-1
 371 0 l 1,12,-1
 91 0 l 1,13,-1
 91 1499 l 1,14,-1
 371 1500 l 1,0,-1
581 230 m 1,16,17
 841 240 841 240 851 520 c 1,18,19
 821 750 821 750 581 769 c 1,20,21
 391 740 391 740 371 572 c 1,22,-1
 371 410 l 1,23,15
 391 260 391 260 581 230 c 1,16,17
EndSplineSet
EndChar

StartChar: c
Encoding: 99 99 69
Width: 1049
GlyphClass: 2
Flags: W
LayerCount: 2
Fore
SplineSet
199 125 m 128,-1,1
 49 250 49 250 49 450 c 2,2,-1
 49 550 l 2,3,4
 49 750 49 750 199 875 c 128,-1,5
 349 1000 349 1000 550 1000 c 0,6,7
 790 1000 790 1000 949 830 c 1,8,-1
 749 680 l 1,9,10
 659 770 659 770 549 770 c 0,11,12
 449 770 449 770 374 690 c 128,-1,13
 299 610 299 610 299 500 c 256,14,15
 299 390 299 390 369 310 c 128,-1,16
 439 230 439 230 549 230 c 256,17,18
 659 230 659 230 749 320 c 1,19,-1
 949 170 l 1,20,21
 789 0 789 0 549 0 c 0,22,0
 349 0 349 0 199 125 c 128,-1,1
EndSplineSet
EndChar

StartChar: d
Encoding: 100 100 70
Width: 1195
GlyphClass: 2
Flags: W
LayerCount: 2
Fore
SplineSet
1049 1499 m 1,0,-1
 1049 0 l 1,1,-1
 769 0 l 1,2,-1
 769 80 l 1,3,4
 657 0 657 0 549 0 c 0,5,6
 319 0 319 0 184 150 c 128,-1,7
 49 300 49 300 49 500 c 256,8,9
 49 700 49 700 184 850 c 128,-1,10
 319 1000 319 1000 549 1000 c 1,11,12
 699 990 699 990 769 919 c 1,13,-1
 769 1500 l 1,14,-1
 1049 1499 l 1,0,-1
769 410 m 1,15,-1
 769 572 l 1,16,17
 749 740 749 740 559 769 c 1,18,19
 319 750 319 750 289 520 c 1,20,21
 299 240 299 240 559 230 c 1,22,23
 749 260 749 260 769 410 c 1,15,-1
EndSplineSet
EndChar

StartChar: e
Encoding: 101 101 71
Width: 1147
GlyphClass: 2
Flags: W
LayerCount: 2
Fore
SplineSet
47 500 m 256,0,1
 47 720 47 720 187 860 c 128,-1,2
 327 1000 327 1000 547 1000 c 256,3,4
 767 1000 767 1000 897 860 c 128,-1,5
 1027 720 1027 720 1027 500 c 2,6,-1
 1027 400 l 1,7,-1
 337 400 l 1,8,9
 347 320 347 320 407 275 c 128,-1,10
 467 230 467 230 547 230 c 0,11,12
 687 230 687 230 797 310 c 1,13,-1
 957 150 l 1,14,15
 847 0 847 0 547 0 c 0,16,17
 327 0 327 0 187 140 c 128,-1,18
 47 280 47 280 47 500 c 256,0,1
687 725 m 128,-1,20
 627 770 627 770 547 770 c 256,21,22
 467 770 467 770 407 725 c 128,-1,23
 347 680 347 680 347 600 c 1,24,-1
 747 600 l 1,25,19
 747 680 747 680 687 725 c 128,-1,20
EndSplineSet
EndChar

StartChar: f
Encoding: 102 102 72
Width: 772
GlyphClass: 2
Flags: W
LayerCount: 2
Fore
SplineSet
147 0 m 1,0,-1
 147 800 l 1,1,-1
 -3 800 l 1,2,-1
 -3 1026 l 1,3,-1
 147 1026 l 1,4,-1
 147 1160 l 2,5,6
 147 1310 147 1310 247 1405 c 128,-1,7
 347 1500 347 1500 517 1500 c 0,8,9
 697 1500 697 1500 797 1400 c 1,10,-1
 648 1234 l 1,11,12
 620 1265 620 1265 548 1265 c 0,13,14
 495 1265 495 1265 461.5 1232.5 c 128,-1,15
 428 1200 428 1200 428 1120 c 2,16,-1
 428 1026 l 1,17,-1
 578 1026 l 1,18,-1
 578 800 l 1,19,-1
 428 800 l 1,20,-1
 428 0 l 1,21,-1
 147 0 l 1,0,-1
EndSplineSet
EndChar

StartChar: g
Encoding: 103 103 73
Width: 1144
GlyphClass: 2
Flags: W
LayerCount: 2
Fore
SplineSet
1044 970 m 1,0,-1
 1044 80 l 2,1,2
 1044 -130 1044 -130 919 -271 c 128,-1,3
 794 -412 794 -412 604 -420 c 1,4,-1
 544 -426 l 1,5,6
 254 -420 254 -420 94 -260 c 1,7,-1
 224 -110 l 1,8,9
 334 -190 334 -190 491 -200 c 1,10,11
 651 -200 651 -200 707.5 -125 c 128,-1,12
 764 -50 764 -50 764 40 c 2,13,-1
 764 90 l 1,14,15
 652 0 652 0 504 0 c 0,16,17
 274 0 274 0 159 135 c 128,-1,18
 44 270 44 270 44 500 c 0,19,20
 44 720 44 720 169 860 c 128,-1,21
 294 1000 294 1000 524 1000 c 1,22,23
 694 990 694 990 764 909 c 1,24,-1
 764 1000 l 1,25,-1
 1044 970 l 1,0,-1
764 410 m 1,26,-1
 764 572 l 1,27,28
 744 740 744 740 554 769 c 1,29,30
 304 760 304 760 284 520 c 1,31,32
 294 240 294 240 554 230 c 1,33,34
 744 260 744 260 764 410 c 1,26,-1
EndSplineSet
EndChar

StartChar: h
Encoding: 104 104 74
Width: 1100
GlyphClass: 2
Flags: W
LayerCount: 2
Fore
SplineSet
380 676 m 1,0,-1
 380 0 l 1,1,-1
 100 0 l 1,2,-1
 100 1500 l 1,3,-1
 380 1500 l 1,4,-1
 380 910 l 1,5,6
 481 1000 481 1000 620 1000 c 0,7,8
 810 1000 810 1000 910 885 c 128,-1,9
 1010 770 1010 770 1010 620 c 2,10,-1
 1010 0 l 1,11,-1
 730 0 l 1,12,-1
 730 550 l 2,13,14
 730 650 730 650 680 705 c 128,-1,15
 630 760 630 760 529 763 c 1,16,17
 442 757 442 757 380 676 c 1,0,-1
EndSplineSet
EndChar

StartChar: i
Encoding: 105 105 75
Width: 524
GlyphClass: 2
Flags: W
LayerCount: 2
Fore
SplineSet
100 0 m 1,0,-1
 100 1001 l 1,1,-1
 380 1001 l 1,2,-1
 380 0 l 1,3,-1
 100 0 l 1,0,-1
90 1240 m 256,4,5
 90 1180 90 1180 130 1140 c 128,-1,6
 170 1100 170 1100 240 1100 c 256,7,8
 310 1100 310 1100 350 1140 c 128,-1,9
 390 1180 390 1180 390 1240 c 256,10,11
 390 1300 390 1300 350 1340.5 c 128,-1,12
 310 1381 310 1381 238 1381 c 0,13,14
 170 1381 170 1381 130 1340.5 c 128,-1,15
 90 1300 90 1300 90 1240 c 256,4,5
EndSplineSet
EndChar

StartChar: j
Encoding: 106 106 76
Width: 595
GlyphClass: 2
Flags: W
LayerCount: 2
Fore
SplineSet
-41 -200 m 1,0,1
 160 -191 160 -191 160 19 c 2,2,-1
 160 1000 l 1,3,-1
 441 1000 l 1,4,-1
 440 -31 l 2,5,6
 440 -210 440 -210 340 -320 c 128,-1,7
 240 -430 240 -430 62 -430 c 2,8,-1
 -140 -430 l 1,9,-1
 -140 -200 l 1,10,-1
 -41 -200 l 1,0,1
149 1240 m 256,11,12
 149 1180 149 1180 189 1140 c 128,-1,13
 229 1100 229 1100 299 1100 c 256,14,15
 369 1100 369 1100 409 1140 c 128,-1,16
 449 1180 449 1180 449 1240 c 256,17,18
 449 1300 449 1300 409 1340.5 c 128,-1,19
 369 1381 369 1381 297 1381 c 0,20,21
 229 1381 229 1381 189 1340.5 c 128,-1,22
 149 1300 149 1300 149 1240 c 256,11,12
EndSplineSet
EndChar

StartChar: k
Encoding: 107 107 77
Width: 1200
GlyphClass: 2
Flags: W
LayerCount: 2
Fore
SplineSet
126 1500 m 1,0,-1
 426 1500 l 1,1,-1
 426 651 l 1,2,-1
 713 1000 l 1,3,-1
 1050 1000 l 1,4,-1
 676 551 l 1,5,-1
 1150 0 l 1,6,-1
 760 0 l 1,7,-1
 426 399 l 1,8,-1
 426 0 l 1,9,-1
 126 0 l 1,10,-1
 126 1500 l 1,0,-1
EndSplineSet
EndChar

StartChar: l
Encoding: 108 108 78
Width: 573
GlyphClass: 2
Flags: W
LayerCount: 2
Fore
SplineSet
100 0 m 1,0,-1
 100 1500 l 1,1,-1
 380 1500 l 1,2,-1
 380 0 l 1,3,-1
 100 0 l 1,0,-1
EndSplineSet
EndChar

StartChar: m
Encoding: 109 109 79
Width: 1773
GlyphClass: 2
Flags: W
LayerCount: 2
Fore
SplineSet
376 640 m 1,0,-1
 376 0 l 1,1,-1
 96 0 l 1,2,-1
 96 971 l 1,3,-1
 376 1001 l 1,4,-1
 376 912 l 1,5,6
 470 1000 470 1000 616 1000 c 0,7,8
 806 1000 806 1000 906 885 c 1,9,10
 1016 1000 1016 1000 1236 1000 c 0,11,12
 1426 1000 1426 1000 1526 885 c 128,-1,13
 1626 770 1626 770 1626 620 c 2,14,-1
 1626 0 l 1,15,-1
 1346 0 l 1,16,-1
 1346 550 l 2,17,18
 1346 650 1346 650 1301 705 c 128,-1,19
 1256 760 1256 760 1155 763 c 1,20,21
 1072 757 1072 757 1011 653 c 1,22,23
 1006 622 1006 622 1006 590 c 2,24,-1
 1006 0 l 1,25,-1
 726 0 l 1,26,-1
 726 550 l 2,27,28
 726 650 726 650 681 705 c 128,-1,29
 636 760 636 760 535 763 c 1,30,31
 443 757 443 757 376 640 c 1,0,-1
EndSplineSet
EndChar

StartChar: n
Encoding: 110 110 80
Width: 1145
GlyphClass: 2
Flags: W
LayerCount: 2
Fore
SplineSet
380 636 m 1,0,-1
 380 0 l 1,1,-1
 100 0 l 1,2,-1
 100 971 l 1,3,-1
 380 1001 l 1,4,-1
 380 910 l 1,5,6
 481 1000 481 1000 620 1000 c 0,7,8
 810 1000 810 1000 910 885 c 128,-1,9
 1010 770 1010 770 1010 620 c 2,10,-1
 1010 0 l 1,11,-1
 730 0 l 1,12,-1
 730 550 l 2,13,14
 730 650 730 650 680 705 c 128,-1,15
 630 760 630 760 529 763 c 1,16,17
 442 757 442 757 380 636 c 1,0,-1
EndSplineSet
EndChar

StartChar: o
Encoding: 111 111 81
Width: 1152
GlyphClass: 2
Flags: W
LayerCount: 2
Fore
SplineSet
188 136.5 m 128,-1,1
 42 283 42 283 42 500 c 0,2,3
 42 718 42 718 188 864 c 128,-1,4
 334 1010 334 1010 552 1010 c 256,5,6
 770 1010 770 1010 916 864 c 128,-1,7
 1062 718 1062 718 1062 500 c 256,8,9
 1062 282 1062 282 916 136 c 128,-1,10
 770 -10 770 -10 552 -10 c 256,11,0
 334 -10 334 -10 188 136.5 c 128,-1,1
551 232 m 256,12,13
 665 232 665 232 736 308.5 c 128,-1,14
 807 385 807 385 807 499 c 256,15,16
 807 613 807 613 736 690 c 128,-1,17
 665 767 665 767 550 767 c 0,18,19
 437 767 437 767 366 690 c 128,-1,20
 295 613 295 613 295 499 c 256,21,22
 295 385 295 385 366 308.5 c 128,-1,23
 437 232 437 232 551 232 c 256,12,13
EndSplineSet
EndChar

StartChar: p
Encoding: 112 112 82
Width: 1196
GlyphClass: 2
Flags: W
LayerCount: 2
Fore
SplineSet
96 -420 m 1,0,-1
 96 971 l 1,1,-1
 376 1001 l 1,2,-1
 376 921 l 1,3,4
 488 1001 488 1001 596 1001 c 0,5,6
 826 1001 826 1001 961 851 c 128,-1,7
 1096 701 1096 701 1096 501 c 256,8,9
 1096 301 1096 301 961 151 c 128,-1,10
 826 1 826 1 596 1 c 1,11,12
 446 11 446 11 376 82 c 1,13,-1
 376 -421 l 1,14,-1
 96 -420 l 1,0,-1
376 591 m 1,15,-1
 376 429 l 1,16,17
 396 261 396 261 586 232 c 1,18,19
 826 251 826 251 856 481 c 1,20,21
 846 761 846 761 586 771 c 1,22,23
 396 741 396 741 376 591 c 1,15,-1
EndSplineSet
EndChar

StartChar: q
Encoding: 113 113 83
Width: 1172
GlyphClass: 2
Flags: W
LayerCount: 2
Fore
SplineSet
764 -421 m 1,0,-1
 764 82 l 1,1,2
 694 11 694 11 544 1 c 1,3,4
 314 1 314 1 179 151 c 128,-1,5
 44 301 44 301 44 501 c 256,6,7
 44 701 44 701 179 851 c 128,-1,8
 314 1001 314 1001 544 1001 c 0,9,10
 652 1001 652 1001 764 921 c 1,11,-1
 764 1001 l 1,12,-1
 1044 971 l 1,13,-1
 1044 -420 l 1,14,-1
 764 -421 l 1,0,-1
554 771 m 1,16,17
 294 761 294 761 284 481 c 1,18,19
 314 251 314 251 554 232 c 1,20,21
 744 261 744 261 764 429 c 1,22,-1
 764 591 l 1,23,15
 744 741 744 741 554 771 c 1,16,17
EndSplineSet
EndChar

StartChar: r
Encoding: 114 114 84
Width: 796
GlyphClass: 2
Flags: W
LayerCount: 2
Fore
SplineSet
358 890 m 1,0,1
 465 1000 465 1000 619 1000 c 0,2,3
 668 1000 668 1000 712 992 c 1,4,-1
 668 716 l 1,5,6
 619 760 619 760 528 763 c 1,7,8
 426 756 426 756 358 615 c 1,9,-1
 358 0 l 1,10,-1
 78 0 l 1,11,-1
 78 971 l 1,12,-1
 358 1001 l 1,13,-1
 358 890 l 1,0,1
EndSplineSet
EndChar

StartChar: s
Encoding: 115 115 85
Width: 928
GlyphClass: 2
Flags: W
LayerCount: 2
Fore
SplineSet
665 972 m 128,-1,1
 743 938 743 938 811 871 c 1,2,-1
 655 695 l 1,3,4
 587 776 587 776 485 776 c 0,5,6
 384 776 384 776 350 738.5 c 128,-1,7
 316 701 316 701 350 670.5 c 128,-1,8
 384 640 384 640 485 620 c 1,9,10
 634 606 634 606 729 535 c 128,-1,11
 824 464 824 464 824 288 c 0,12,13
 824 146 824 146 712 68 c 128,-1,14
 600 -10 600 -10 451 -10 c 0,15,16
 309 -10 309 -10 214.5 30.5 c 128,-1,17
 120 71 120 71 52 139 c 1,18,-1
 207 314 l 1,19,20
 275 233 275 233 418 220 c 1,21,22
 533 220 533 220 566.5 257.5 c 128,-1,23
 600 295 600 295 576.5 332.5 c 128,-1,24
 553 370 553 370 418 383 c 0,25,26
 296 397 296 397 194.5 458 c 128,-1,27
 93 519 93 519 93 688 c 0,28,29
 93 843 93 843 208.5 924.5 c 128,-1,30
 324 1006 324 1006 446 1006 c 0,31,0
 587 1006 587 1006 665 972 c 128,-1,1
EndSplineSet
EndChar

StartChar: t
Encoding: 116 116 86
Width: 787
GlyphClass: 2
Flags: W
LayerCount: 2
Fore
SplineSet
552 0 m 0,1,2
 382 0 382 0 282 95 c 128,-1,3
 182 190 182 190 182 340 c 2,4,-1
 182 773 l 1,5,-1
 32 773 l 1,6,-1
 32 999 l 1,7,-1
 182 999 l 1,8,-1
 182 1270 l 1,9,-1
 463 1300 l 1,10,-1
 463 999 l 1,11,-1
 613 999 l 1,12,-1
 613 773 l 1,13,-1
 463 773 l 1,14,-1
 463 380 l 2,15,16
 463 300 463 300 496.5 267.5 c 128,-1,17
 530 235 530 235 583 235 c 0,18,19
 599 235 599 235 658 248 c 1,20,-1
 717 47 l 1,21,0
 645 0 645 0 552 0 c 0,1,2
EndSplineSet
EndChar

StartChar: u
Encoding: 117 117 87
Width: 1125
GlyphClass: 2
Flags: W
LayerCount: 2
Fore
SplineSet
703 355 m 1,0,-1
 703 1001 l 1,1,-1
 983 1001 l 1,2,-1
 983 0 l 1,3,-1
 703 0 l 1,4,-1
 703 91 l 1,5,6
 602 1 602 1 463 1 c 0,7,8
 273 1 273 1 173 116 c 128,-1,9
 73 231 73 231 73 381 c 2,10,-1
 73 1001 l 1,11,-1
 353 1001 l 1,12,-1
 353 451 l 2,13,14
 353 351 353 351 403 296 c 128,-1,15
 453 241 453 241 554 238 c 1,16,17
 641 244 641 244 703 355 c 1,0,-1
EndSplineSet
EndChar

StartChar: v
Encoding: 118 118 88
Width: 1142
GlyphClass: 2
Flags: W
LayerCount: 2
Fore
SplineSet
17 1000 m 1,0,-1
 419 0 l 1,1,-1
 659 0 l 1,2,-1
 1060 1000 l 1,3,-1
 776 1000 l 1,4,-1
 536 375 l 1,5,-1
 301 1000 l 1,6,-1
 17 1000 l 1,0,-1
EndSplineSet
EndChar

StartChar: w
Encoding: 119 119 89
Width: 1460
GlyphClass: 2
Flags: W
LayerCount: 2
Fore
SplineSet
843 0 m 1,0,-1
 1093 0 l 1,1,-1
 1360 1001 l 1,2,-1
 1097 1001 l 1,3,-1
 943 400 l 1,4,-1
 800 1001 l 1,5,-1
 593 1001 l 1,6,-1
 443 410 l 1,7,-1
 288 1001 l 1,8,-1
 25 1001 l 1,9,-1
 293 0 l 1,10,-1
 543 0 l 1,11,-1
 693 501 l 1,12,-1
 843 0 l 1,0,-1
EndSplineSet
EndChar

StartChar: x
Encoding: 120 120 90
Width: 1096
GlyphClass: 2
Flags: W
LayerCount: 2
Fore
SplineSet
369 521 m 1,0,-1
 45 998 l 1,1,-1
 329 998 l 1,2,-1
 512 730 l 1,3,-1
 695 998 l 1,4,-1
 979 998 l 1,5,-1
 655 521 l 1,6,-1
 1011 0 l 1,7,-1
 724 0 l 1,8,-1
 512 312 l 1,9,-1
 300 0 l 1,10,-1
 13 0 l 1,11,-1
 369 521 l 1,0,-1
EndSplineSet
EndChar

StartChar: y
Encoding: 121 121 91
Width: 1128
GlyphClass: 2
Flags: W
LayerCount: 2
Fore
SplineSet
720 346 m 1,0,-1
 720 1000 l 1,1,-1
 1000 1000 l 1,2,-1
 1000 80 l 2,3,4
 1000 -130 1000 -130 870 -271 c 128,-1,5
 740 -412 740 -412 560 -420 c 1,6,-1
 500 -426 l 1,7,8
 290 -420 290 -420 120 -260 c 1,9,-1
 250 -110 l 1,10,11
 370 -200 370 -200 477 -210 c 1,12,13
 607 -210 607 -210 663.5 -145 c 128,-1,14
 720 -80 720 -80 720 40 c 2,15,-1
 720 91 l 1,16,17
 614 0 614 0 475 0 c 0,18,19
 285 0 285 0 185 115 c 128,-1,20
 85 230 85 230 85 380 c 2,21,-1
 85 1000 l 1,22,-1
 365 1000 l 1,23,-1
 365 450 l 2,24,25
 365 350 365 350 415 295 c 128,-1,26
 465 240 465 240 566 237 c 1,27,28
 654 243 654 243 720 346 c 1,0,-1
EndSplineSet
EndChar

StartChar: z
Encoding: 122 122 92
Width: 1013
GlyphClass: 2
Flags: W
LayerCount: 2
Fore
SplineSet
884 0 m 1,0,-1
 85 0 l 1,1,-1
 85 67 l 1,2,-1
 501 762 l 1,3,-1
 85 762 l 1,4,-1
 85 998 l 1,5,-1
 884 998 l 1,6,-1
 884 925 l 1,7,-1
 467 236 l 1,8,-1
 884 236 l 1,9,-1
 884 0 l 1,0,-1
EndSplineSet
EndChar

StartChar: bar
Encoding: 124 124 93
Width: 774
GlyphClass: 2
Flags: W
LayerCount: 2
Fore
SplineSet
195 -400 m 1,0,-1
 195 1899 l 1,1,-1
 475 1899 l 1,2,-1
 475 -400 l 1,3,-1
 195 -400 l 1,0,-1
EndSplineSet
EndChar

StartChar: sterling
Encoding: 163 163 95
Width: 1365
GlyphClass: 2
Flags: W
LayerCount: 2
Fore
SplineSet
189 799 m 1,0,1
 170 933 170 933 193 1080 c 0,2,3
 223 1279 223 1279 353.5 1389.5 c 128,-1,4
 484 1500 484 1500 674 1500 c 0,5,6
 853 1500 853 1500 958 1455 c 128,-1,7
 1063 1410 1063 1410 1163 1310 c 1,8,-1
 993 1080 l 1,9,10
 893 1200 893 1200 713 1210 c 1,11,12
 573 1200 573 1200 513 1130 c 128,-1,13
 453 1060 453 1060 448 920 c 0,14,15
 446 859 446 859 456 799 c 1,16,-1
 892 799 l 1,17,-1
 892 631 l 1,18,-1
 508 631 l 1,19,20
 558 496 558 496 492 230 c 1,21,-1
 1192 230 l 1,22,-1
 1192 0 l 1,23,-1
 162 0 l 1,24,-1
 162 230 l 1,25,26
 322 400 322 400 238 615 c 0,27,28
 234 623 234 623 231 631 c 1,29,-1
 91 631 l 1,30,-1
 91 799 l 1,31,-1
 189 799 l 1,0,1
EndSplineSet
EndChar

StartChar: copyright
Encoding: 169 169 96
Width: 1674
GlyphClass: 2
Flags: W
LayerCount: 2
Fore
SplineSet
840 1462 m 0,0,1
 992 1462 992 1462 1131 1401.5 c 128,-1,2
 1270 1341 1270 1341 1374 1232 c 0,3,4
 1473 1130 1473 1130 1526.5 994.5 c 128,-1,5
 1580 859 1580 859 1580 718 c 0,6,7
 1580 576 1580 576 1526.5 442.5 c 128,-1,8
 1473 309 1473 309 1370 203 c 0,9,10
 1265 93 1265 93 1127 34.5 c 128,-1,11
 989 -24 989 -24 833 -24 c 0,12,13
 680 -24 680 -24 544 35.5 c 128,-1,14
 408 95 408 95 302 205 c 0,15,16
 199 310 199 310 146.5 442 c 128,-1,17
 94 574 94 574 94 718 c 0,18,19
 94 861 94 861 146.5 994.5 c 128,-1,20
 199 1128 199 1128 300 1232 c 0,21,22
 402 1341 402 1341 542.5 1401.5 c 128,-1,23
 683 1462 683 1462 840 1462 c 0,0,1
361 1193 m 0,24,25
 275 1109 275 1109 220.5 984 c 128,-1,26
 166 859 166 859 166 718 c 0,27,28
 166 576 166 576 220.5 452.5 c 128,-1,29
 275 329 275 329 375 233 c 0,30,31
 473 142 473 142 589.5 95 c 128,-1,32
 706 48 706 48 834 48 c 0,33,34
 964 48 964 48 1082 94.5 c 128,-1,35
 1200 141 1200 141 1297 231 c 0,36,37
 1397 328 1397 328 1452.5 453 c 128,-1,38
 1508 578 1508 578 1508 718 c 0,39,40
 1508 857 1508 857 1452.5 984 c 128,-1,41
 1397 1111 1397 1111 1301 1204 c 0,42,43
 1205 1295 1205 1295 1085.5 1342.5 c 128,-1,44
 966 1390 966 1390 839 1390 c 0,45,46
 709 1390 709 1390 588.5 1342.5 c 128,-1,47
 468 1295 468 1295 361 1193 c 0,24,25
491.5 366.5 m 128,-1,49
 352 505 352 505 352 714 c 0,50,51
 353 919 353 919 492 1058.5 c 128,-1,52
 631 1198 631 1198 837 1198 c 0,53,54
 1044 1198 1044 1198 1193 1068 c 1,55,-1
 1064 927 l 1,56,57
 965 1004 965 1004 837 1004 c 0,58,59
 706 1004 706 1004 626 923 c 128,-1,60
 546 842 546 842 546 716 c 0,61,62
 547 580 547 580 627 500.5 c 128,-1,63
 707 421 707 421 838 421 c 256,64,65
 969 421 969 421 1064 498 c 1,66,-1
 1193 356 l 1,67,68
 1045 227 1045 227 837 227 c 0,69,48
 631 228 631 228 491.5 366.5 c 128,-1,49
EndSplineSet
EndChar

StartChar: guillemotleft
Encoding: 171 171 97
Width: 987
GlyphClass: 2
Flags: W
LayerCount: 2
Fore
SplineSet
951 730 m 1,0,-1
 700 481 l 1,1,-1
 951 231 l 1,2,-1
 951 130 l 1,3,-1
 450 479 l 1,4,-1
 951 832 l 1,5,-1
 951 730 l 1,0,-1
601 730 m 1,6,-1
 350 481 l 1,7,-1
 601 231 l 1,8,-1
 601 130 l 1,9,-1
 100 479 l 1,10,-1
 601 832 l 1,11,-1
 601 730 l 1,6,-1
EndSplineSet
EndChar

StartChar: registered
Encoding: 174 174 98
Width: 1674
GlyphClass: 2
Flags: W
LayerCount: 2
Fore
SplineSet
840 1462 m 0,0,1
 992 1462 992 1462 1131 1401.5 c 128,-1,2
 1270 1341 1270 1341 1374 1232 c 0,3,4
 1473 1130 1473 1130 1526.5 994.5 c 128,-1,5
 1580 859 1580 859 1580 718 c 0,6,7
 1580 576 1580 576 1526.5 442.5 c 128,-1,8
 1473 309 1473 309 1370 203 c 0,9,10
 1265 93 1265 93 1127 34.5 c 128,-1,11
 989 -24 989 -24 833 -24 c 0,12,13
 680 -24 680 -24 544 35.5 c 128,-1,14
 408 95 408 95 302 205 c 0,15,16
 199 310 199 310 146.5 442 c 128,-1,17
 94 574 94 574 94 718 c 0,18,19
 94 861 94 861 146.5 994.5 c 128,-1,20
 199 1128 199 1128 300 1232 c 0,21,22
 402 1341 402 1341 542.5 1401.5 c 128,-1,23
 683 1462 683 1462 840 1462 c 0,0,1
361 1193 m 0,24,25
 275 1109 275 1109 220.5 984 c 128,-1,26
 166 859 166 859 166 718 c 0,27,28
 166 576 166 576 220.5 452.5 c 128,-1,29
 275 329 275 329 375 233 c 0,30,31
 473 142 473 142 589.5 95 c 128,-1,32
 706 48 706 48 834 48 c 0,33,34
 964 48 964 48 1082 94.5 c 128,-1,35
 1200 141 1200 141 1297 231 c 0,36,37
 1397 328 1397 328 1452.5 453 c 128,-1,38
 1508 578 1508 578 1508 718 c 0,39,40
 1508 857 1508 857 1452.5 984 c 128,-1,41
 1397 1111 1397 1111 1301 1204 c 0,42,43
 1205 1295 1205 1295 1085.5 1342.5 c 128,-1,44
 966 1390 966 1390 839 1390 c 0,45,46
 709 1390 709 1390 588.5 1342.5 c 128,-1,47
 468 1295 468 1295 361 1193 c 0,24,25
658 809 m 1,48,-1
 908 809 l 2,49,50
 1016 810 1016 810 1019 907 c 1,51,52
 1016 995 1016 995 910 999 c 1,53,-1
 658 999 l 1,54,-1
 658 809 l 1,48,-1
1017 662 m 1,55,-1
 1240 272 l 1,56,-1
 1035 272 l 1,57,-1
 820 642 l 1,58,-1
 658 642 l 1,59,-1
 658 272 l 1,60,-1
 479 272 l 1,61,-1
 479 1166 l 1,62,-1
 869 1166 l 2,63,64
 1182 1166 1182 1166 1182 909 c 0,65,66
 1182 715 1182 715 1017 662 c 1,55,-1
EndSplineSet
EndChar

StartChar: degree
Encoding: 176 176 99
Width: 772
GlyphClass: 2
Flags: W
LayerCount: 2
Fore
SplineSet
537 1198 m 0,0,1
 537 1280 537 1280 481 1326.5 c 128,-1,2
 425 1373 425 1373 363 1373 c 256,3,4
 301 1373 301 1373 244 1326.5 c 128,-1,5
 187 1280 187 1280 187 1198 c 0,6,7
 187 1118 187 1118 244 1070.5 c 128,-1,8
 301 1023 301 1023 363 1023 c 256,9,10
 425 1023 425 1023 481 1070 c 128,-1,11
 537 1117 537 1117 537 1198 c 0,0,1
362 1500 m 256,12,13
 496 1500 496 1500 580 1406.5 c 128,-1,14
 664 1313 664 1313 664 1197 c 0,15,16
 664 1083 664 1083 579 989.5 c 128,-1,17
 494 896 494 896 360 896 c 256,18,19
 226 896 226 896 143 988 c 128,-1,20
 60 1080 60 1080 60 1197 c 0,21,22
 60 1315 60 1315 144 1407.5 c 128,-1,23
 228 1500 228 1500 362 1500 c 256,12,13
EndSplineSet
EndChar

StartChar: guillemotright
Encoding: 187 187 100
Width: 987
GlyphClass: 2
Flags: W
LayerCount: 2
Fore
SplineSet
100 832 m 1,0,-1
 601 479 l 1,1,-1
 100 130 l 1,2,-1
 100 231 l 1,3,-1
 351 481 l 1,4,-1
 100 730 l 1,5,-1
 100 832 l 1,0,-1
450 832 m 1,6,-1
 951 479 l 1,7,-1
 450 130 l 1,8,-1
 450 231 l 1,9,-1
 701 481 l 1,10,-1
 450 730 l 1,11,-1
 450 832 l 1,6,-1
EndSplineSet
EndChar

StartChar: Odieresis
Encoding: 214 214 101
Width: 1647
GlyphClass: 2
Flags: W
LayerCount: 2
Fore
SplineSet
545 1875 m 256,0,1
 485 1875 485 1875 445 1835 c 128,-1,2
 405 1795 405 1795 405 1725 c 256,3,4
 405 1655 405 1655 445 1615 c 128,-1,5
 485 1575 485 1575 545 1575 c 256,6,7
 605 1575 605 1575 645.5 1615 c 128,-1,8
 686 1655 686 1655 686 1727 c 0,9,10
 686 1795 686 1795 645.5 1835 c 128,-1,11
 605 1875 605 1875 545 1875 c 256,0,1
1061 1875 m 256,12,13
 1001 1875 1001 1875 961 1835 c 128,-1,14
 921 1795 921 1795 921 1725 c 256,15,16
 921 1655 921 1655 961 1615 c 128,-1,17
 1001 1575 1001 1575 1061 1575 c 256,18,19
 1121 1575 1121 1575 1161.5 1615 c 128,-1,20
 1202 1655 1202 1655 1202 1727 c 0,21,22
 1202 1795 1202 1795 1161.5 1835 c 128,-1,23
 1121 1875 1121 1875 1061 1875 c 256,12,13
262 215.5 m 128,-1,25
 47 431 47 431 47 750 c 0,26,27
 47 1070 47 1070 262 1285 c 128,-1,28
 477 1500 477 1500 797 1500 c 256,29,30
 1117 1500 1117 1500 1332 1285 c 128,-1,31
 1547 1070 1547 1070 1547 750 c 256,32,33
 1547 430 1547 430 1332 215 c 128,-1,34
 1117 0 1117 0 797 0 c 256,35,24
 477 0 477 0 262 215.5 c 128,-1,25
798 280 m 0,36,37
 997 280 997 280 1122 415 c 128,-1,38
 1247 550 1247 550 1247 750 c 256,39,40
 1247 950 1247 950 1122 1085 c 128,-1,41
 997 1220 997 1220 796 1220 c 0,42,43
 597 1220 597 1220 472 1085 c 128,-1,44
 347 950 347 950 347 750 c 256,45,46
 347 550 347 550 472 415 c 128,-1,47
 597 280 597 280 798 280 c 0,36,37
EndSplineSet
EndChar

StartChar: Udieresis
Encoding: 220 220 102
Width: 1601
GlyphClass: 2
Flags: W
LayerCount: 2
Fore
SplineSet
481 1899 m 256,0,1
 421 1899 421 1899 381 1859 c 128,-1,2
 341 1819 341 1819 341 1749 c 256,3,4
 341 1679 341 1679 381 1639 c 128,-1,5
 421 1599 421 1599 481 1599 c 256,6,7
 541 1599 541 1599 581.5 1639 c 128,-1,8
 622 1679 622 1679 622 1751 c 0,9,10
 622 1819 622 1819 581.5 1859 c 128,-1,11
 541 1899 541 1899 481 1899 c 256,0,1
997 1899 m 256,12,13
 937 1899 937 1899 897 1859 c 128,-1,14
 857 1819 857 1819 857 1749 c 256,15,16
 857 1679 857 1679 897 1639 c 128,-1,17
 937 1599 937 1599 997 1599 c 256,18,19
 1057 1599 1057 1599 1097.5 1639 c 128,-1,20
 1138 1679 1138 1679 1138 1751 c 0,21,22
 1138 1819 1138 1819 1097.5 1859 c 128,-1,23
 1057 1899 1057 1899 997 1899 c 256,12,13
100 1500 m 1,24,-1
 100 550 l 2,25,26
 100 320 100 320 285 160 c 128,-1,27
 470 0 470 0 750 0 c 256,28,29
 1030 0 1030 0 1215 160 c 128,-1,30
 1400 320 1400 320 1400 550 c 2,31,-1
 1400 1500 l 1,32,-1
 1100 1500 l 1,33,-1
 1100 630 l 2,34,35
 1100 460 1100 460 1000 380 c 128,-1,36
 900 300 900 300 750 300 c 256,37,38
 600 300 600 300 500 380 c 128,-1,39
 400 460 400 460 400 630 c 2,40,-1
 400 1500 l 1,41,-1
 100 1500 l 1,24,-1
EndSplineSet
EndChar

StartChar: aacute
Encoding: 225 225 103
Width: 1099
GlyphClass: 2
Flags: W
LayerCount: 2
Fore
SplineSet
476 1086 m 1,0,-1
 281 1086 l 1,1,-1
 671 1302 l 1,2,-1
 863 1305 l 1,3,-1
 476 1086 l 1,0,-1
119 880 m 1,4,5
 309 1000 309 1000 559 1000 c 0,6,7
 739 1000 739 1000 844 900 c 128,-1,8
 949 800 949 800 949 600 c 2,9,-1
 949 0 l 1,10,-1
 669 0 l 1,11,-1
 669 80 l 1,12,13
 547 0 547 0 449 0 c 0,14,15
 249 0 249 0 149 85 c 128,-1,16
 49 170 49 170 49 320 c 0,17,18
 49 460 49 460 143.5 570 c 128,-1,19
 238 680 238 680 449 680 c 0,20,21
 546 680 546 680 669 620 c 1,22,-1
 669 650 l 2,23,24
 667 760 667 760 509 770 c 1,25,26
 329 770 329 770 229 710 c 1,27,-1
 119 880 l 1,4,5
669 300 m 1,28,-1
 669 413 l 1,29,30
 629 490 629 490 479 490 c 1,31,32
 299 470 299 470 289 350 c 1,33,34
 299 231 299 231 479 221 c 1,35,36
 629 221 629 221 669 300 c 1,28,-1
EndSplineSet
EndChar

StartChar: acircumflex
Encoding: 226 226 104
Width: 1099
GlyphClass: 2
Flags: W
LayerCount: 2
Fore
SplineSet
164 1119 m 1,0,-1
 517 1619 l 1,1,-1
 866 1119 l 1,2,-1
 765 1119 l 1,3,-1
 515 1370 l 1,4,-1
 266 1119 l 1,5,-1
 164 1119 l 1,0,-1
119 880 m 1,6,7
 309 1000 309 1000 559 1000 c 0,8,9
 739 1000 739 1000 844 900 c 128,-1,10
 949 800 949 800 949 600 c 2,11,-1
 949 0 l 1,12,-1
 669 0 l 1,13,-1
 669 80 l 1,14,15
 547 0 547 0 449 0 c 0,16,17
 249 0 249 0 149 85 c 128,-1,18
 49 170 49 170 49 320 c 0,19,20
 49 460 49 460 143.5 570 c 128,-1,21
 238 680 238 680 449 680 c 0,22,23
 546 680 546 680 669 620 c 1,24,-1
 669 650 l 2,25,26
 667 760 667 760 509 770 c 1,27,28
 329 770 329 770 229 710 c 1,29,-1
 119 880 l 1,6,7
669 300 m 1,30,-1
 669 413 l 1,31,32
 629 490 629 490 479 490 c 1,33,34
 299 470 299 470 289 350 c 1,35,36
 299 231 299 231 479 221 c 1,37,38
 629 221 629 221 669 300 c 1,30,-1
EndSplineSet
EndChar

StartChar: atilde
Encoding: 227 227 105
Width: 1099
GlyphClass: 2
Flags: W
LayerCount: 2
Fore
SplineSet
356 1321 m 128,-1,1
 398 1352 398 1352 444 1352 c 128,-1,2
 490 1352 490 1352 549.5 1315.5 c 128,-1,3
 609 1279 609 1279 637 1279 c 0,4,5
 685 1279 685 1279 728 1346 c 1,6,7
 792 1315 792 1315 814 1296 c 1,8,9
 753 1173 753 1173 643 1173 c 0,10,11
 610 1173 610 1173 546.5 1208.5 c 128,-1,12
 483 1244 483 1244 463 1244 c 0,13,14
 421 1244 421 1244 374 1182 c 1,15,16
 338 1193 338 1193 289 1233 c 1,17,0
 314 1290 314 1290 356 1321 c 128,-1,1
119 880 m 1,18,19
 309 1000 309 1000 559 1000 c 0,20,21
 739 1000 739 1000 844 900 c 128,-1,22
 949 800 949 800 949 600 c 2,23,-1
 949 0 l 1,24,-1
 669 0 l 1,25,-1
 669 80 l 1,26,27
 547 0 547 0 449 0 c 0,28,29
 249 0 249 0 149 85 c 128,-1,30
 49 170 49 170 49 320 c 0,31,32
 49 460 49 460 143.5 570 c 128,-1,33
 238 680 238 680 449 680 c 0,34,35
 546 680 546 680 669 620 c 1,36,-1
 669 650 l 2,37,38
 667 760 667 760 509 770 c 1,39,40
 329 770 329 770 229 710 c 1,41,-1
 119 880 l 1,18,19
669 300 m 1,42,-1
 669 413 l 1,43,44
 629 490 629 490 479 490 c 1,45,46
 299 470 299 470 289 350 c 1,47,48
 299 231 299 231 479 221 c 1,49,50
 629 221 629 221 669 300 c 1,42,-1
EndSplineSet
EndChar

StartChar: adieresis
Encoding: 228 228 106
Width: 1099
GlyphClass: 2
Flags: W
LayerCount: 2
Fore
SplineSet
249 1439 m 256,0,1
 189 1439 189 1439 149 1399 c 128,-1,2
 109 1359 109 1359 109 1289 c 256,3,4
 109 1219 109 1219 149 1179 c 128,-1,5
 189 1139 189 1139 249 1139 c 256,6,7
 309 1139 309 1139 349.5 1179 c 128,-1,8
 390 1219 390 1219 390 1291 c 0,9,10
 390 1359 390 1359 349.5 1399 c 128,-1,11
 309 1439 309 1439 249 1439 c 256,0,1
765 1439 m 256,12,13
 705 1439 705 1439 665 1399 c 128,-1,14
 625 1359 625 1359 625 1289 c 256,15,16
 625 1219 625 1219 665 1179 c 128,-1,17
 705 1139 705 1139 765 1139 c 256,18,19
 825 1139 825 1139 865.5 1179 c 128,-1,20
 906 1219 906 1219 906 1291 c 0,21,22
 906 1359 906 1359 865.5 1399 c 128,-1,23
 825 1439 825 1439 765 1439 c 256,12,13
119 880 m 1,24,25
 309 1000 309 1000 559 1000 c 0,26,27
 739 1000 739 1000 844 900 c 128,-1,28
 949 800 949 800 949 600 c 2,29,-1
 949 0 l 1,30,-1
 669 0 l 1,31,-1
 669 80 l 1,32,33
 547 0 547 0 449 0 c 0,34,35
 249 0 249 0 149 85 c 128,-1,36
 49 170 49 170 49 320 c 0,37,38
 49 460 49 460 143.5 570 c 128,-1,39
 238 680 238 680 449 680 c 0,40,41
 546 680 546 680 669 620 c 1,42,-1
 669 650 l 2,43,44
 667 760 667 760 509 770 c 1,45,46
 329 770 329 770 229 710 c 1,47,-1
 119 880 l 1,24,25
669 300 m 1,48,-1
 669 413 l 1,49,50
 629 490 629 490 479 490 c 1,51,52
 299 470 299 470 289 350 c 1,53,54
 299 231 299 231 479 221 c 1,55,56
 629 221 629 221 669 300 c 1,48,-1
EndSplineSet
EndChar

StartChar: ccedilla
Encoding: 231 231 107
Width: 1049
GlyphClass: 2
Flags: W
LayerCount: 2
Fore
SplineSet
425 13 m 1024,0,-1
199 125 m 0,1,2
 49 250 49 250 49 450 c 2,3,-1
 49 550 l 2,4,5
 49 750 49 750 199 875 c 128,-1,6
 349 1000 349 1000 550 1000 c 0,7,8
 790 1000 790 1000 949 830 c 1,9,-1
 749 680 l 1,10,11
 659 770 659 770 549 770 c 0,12,13
 449 770 449 770 374 690 c 128,-1,14
 299 610 299 610 299 500 c 256,15,16
 299 390 299 390 369 310 c 128,-1,17
 439 230 439 230 549 230 c 256,18,19
 659 230 659 230 749 320 c 1,20,-1
 949 170 l 1,21,22
 818 30 818 30 632 5 c 1,23,-1
 524 -214 l 1,24,25
 410 -214 410 -214 296 -214 c 1,26,27
 360 -107 360 -107 425 0 c 1,28,29
 425 0 425 0 425 13 c 1,30,31
 301 40 301 40 199 125 c 0,1,2
EndSplineSet
EndChar

StartChar: egrave
Encoding: 232 232 108
Width: 1147
GlyphClass: 2
Flags: W
LayerCount: 2
Fore
SplineSet
640 1117 m 5,0,-1
 804 1117 l 5,1,-1
 476 1315 l 5,2,-1
 315 1318 l 5,3,-1
 640 1117 l 5,0,-1
47 500 m 256,4,5
 47 720 47 720 187 860 c 128,-1,6
 327 1000 327 1000 547 1000 c 256,7,8
 767 1000 767 1000 897 860 c 128,-1,9
 1027 720 1027 720 1027 500 c 2,10,-1
 1027 400 l 1,11,-1
 337 400 l 1,12,13
 347 320 347 320 407 275 c 128,-1,14
 467 230 467 230 547 230 c 0,15,16
 687 230 687 230 797 310 c 1,17,-1
 957 150 l 1,18,19
 847 0 847 0 547 0 c 0,20,21
 327 0 327 0 187 140 c 128,-1,22
 47 280 47 280 47 500 c 256,4,5
687 725 m 128,-1,24
 627 770 627 770 547 770 c 256,25,26
 467 770 467 770 407 725 c 128,-1,27
 347 680 347 680 347 600 c 1,28,-1
 747 600 l 1,29,23
 747 680 747 680 687 725 c 128,-1,24
EndSplineSet
EndChar

StartChar: eacute
Encoding: 233 233 109
Width: 1147
GlyphClass: 2
Flags: W
LayerCount: 2
Fore
SplineSet
476 1086 m 1,0,-1
 281 1086 l 1,1,-1
 671 1302 l 1,2,-1
 863 1305 l 1,3,-1
 476 1086 l 1,0,-1
47 500 m 256,4,5
 47 720 47 720 187 860 c 128,-1,6
 327 1000 327 1000 547 1000 c 256,7,8
 767 1000 767 1000 897 860 c 128,-1,9
 1027 720 1027 720 1027 500 c 2,10,-1
 1027 400 l 1,11,-1
 337 400 l 1,12,13
 347 320 347 320 407 275 c 128,-1,14
 467 230 467 230 547 230 c 0,15,16
 687 230 687 230 797 310 c 1,17,-1
 957 150 l 1,18,19
 847 0 847 0 547 0 c 0,20,21
 327 0 327 0 187 140 c 128,-1,22
 47 280 47 280 47 500 c 256,4,5
687 725 m 128,-1,24
 627 770 627 770 547 770 c 256,25,26
 467 770 467 770 407 725 c 128,-1,27
 347 680 347 680 347 600 c 1,28,-1
 747 600 l 1,29,23
 747 680 747 680 687 725 c 128,-1,24
EndSplineSet
EndChar

StartChar: edieresis
Encoding: 235 235 110
Width: 1147
GlyphClass: 2
Flags: W
LayerCount: 2
Fore
SplineSet
291 1442 m 256,0,1
 231 1442 231 1442 191 1402 c 128,-1,2
 151 1362 151 1362 151 1292 c 256,3,4
 151 1222 151 1222 191 1182 c 128,-1,5
 231 1142 231 1142 291 1142 c 256,6,7
 351 1142 351 1142 391.5 1182 c 128,-1,8
 432 1222 432 1222 432 1294 c 0,9,10
 432 1362 432 1362 391.5 1402 c 128,-1,11
 351 1442 351 1442 291 1442 c 256,0,1
807 1442 m 256,12,13
 747 1442 747 1442 707 1402 c 128,-1,14
 667 1362 667 1362 667 1292 c 256,15,16
 667 1222 667 1222 707 1182 c 128,-1,17
 747 1142 747 1142 807 1142 c 256,18,19
 867 1142 867 1142 907.5 1182 c 128,-1,20
 948 1222 948 1222 948 1294 c 0,21,22
 948 1362 948 1362 907.5 1402 c 128,-1,23
 867 1442 867 1442 807 1442 c 256,12,13
47 500 m 256,24,25
 47 720 47 720 187 860 c 128,-1,26
 327 1000 327 1000 547 1000 c 256,27,28
 767 1000 767 1000 897 860 c 128,-1,29
 1027 720 1027 720 1027 500 c 2,30,-1
 1027 400 l 1,31,-1
 337 400 l 1,32,33
 347 320 347 320 407 275 c 128,-1,34
 467 230 467 230 547 230 c 0,35,36
 687 230 687 230 797 310 c 1,37,-1
 957 150 l 1,38,39
 847 0 847 0 547 0 c 0,40,41
 327 0 327 0 187 140 c 128,-1,42
 47 280 47 280 47 500 c 256,24,25
687 725 m 128,-1,44
 627 770 627 770 547 770 c 256,45,46
 467 770 467 770 407 725 c 128,-1,47
 347 680 347 680 347 600 c 1,48,-1
 747 600 l 1,49,43
 747 680 747 680 687 725 c 128,-1,44
EndSplineSet
EndChar

StartChar: iacute
Encoding: 237 237 111
Width: 524
GlyphClass: 2
Flags: W
LayerCount: 2
Fore
SplineSet
214 1086 m 1,0,-1
 50 1086 l 1,1,-1
 326 1298 l 1,2,-1
 502 1302 l 1,3,-1
 214 1086 l 1,0,-1
100 0 m 1,4,-1
 100 1001 l 1,5,-1
 380 1001 l 1,6,-1
 380 0 l 1,7,-1
 100 0 l 1,4,-1
EndSplineSet
EndChar

StartChar: ntilde
Encoding: 241 241 112
Width: 1145
GlyphClass: 2
Flags: W
LayerCount: 2
Fore
SplineSet
356 1321 m 128,-1,1
 398 1352 398 1352 444 1352 c 128,-1,2
 490 1352 490 1352 549.5 1315.5 c 128,-1,3
 609 1279 609 1279 637 1279 c 0,4,5
 685 1279 685 1279 728 1346 c 1,6,7
 792 1315 792 1315 814 1296 c 1,8,9
 753 1173 753 1173 643 1173 c 0,10,11
 610 1173 610 1173 546.5 1208.5 c 128,-1,12
 483 1244 483 1244 463 1244 c 0,13,14
 421 1244 421 1244 374 1182 c 1,15,16
 338 1193 338 1193 289 1233 c 1,17,0
 314 1290 314 1290 356 1321 c 128,-1,1
380 636 m 1,18,-1
 380 0 l 1,19,-1
 100 0 l 1,20,-1
 100 971 l 1,21,-1
 380 1001 l 1,22,-1
 380 910 l 1,23,24
 481 1000 481 1000 620 1000 c 0,25,26
 810 1000 810 1000 910 885 c 128,-1,27
 1010 770 1010 770 1010 620 c 2,28,-1
 1010 0 l 1,29,-1
 730 0 l 1,30,-1
 730 550 l 2,31,32
 730 650 730 650 680 705 c 128,-1,33
 630 760 630 760 529 763 c 1,34,35
 442 757 442 757 380 636 c 1,18,-1
EndSplineSet
EndChar

StartChar: oacute
Encoding: 243 243 113
Width: 1152
GlyphClass: 2
Flags: W
LayerCount: 2
Fore
SplineSet
476 1086 m 5,0,-1
 281 1086 l 5,1,-1
 671 1302 l 5,2,-1
 863 1305 l 5,3,-1
 476 1086 l 5,0,-1
188 136.5 m 128,-1,5
 42 283 42 283 42 500 c 0,6,7
 42 718 42 718 188 864 c 128,-1,8
 334 1010 334 1010 552 1010 c 256,9,10
 770 1010 770 1010 916 864 c 128,-1,11
 1062 718 1062 718 1062 500 c 256,12,13
 1062 282 1062 282 916 136 c 128,-1,14
 770 -10 770 -10 552 -10 c 256,15,4
 334 -10 334 -10 188 136.5 c 128,-1,5
551 232 m 256,16,17
 665 232 665 232 736 308.5 c 128,-1,18
 807 385 807 385 807 499 c 256,19,20
 807 613 807 613 736 690 c 128,-1,21
 665 767 665 767 550 767 c 0,22,23
 437 767 437 767 366 690 c 128,-1,24
 295 613 295 613 295 499 c 256,25,26
 295 385 295 385 366 308.5 c 128,-1,27
 437 232 437 232 551 232 c 256,16,17
EndSplineSet
EndChar

StartChar: ocircumflex
Encoding: 244 244 114
Width: 1152
GlyphClass: 2
Flags: W
LayerCount: 2
Fore
SplineSet
164 1119 m 5,0,-1
 517 1619 l 5,1,-1
 866 1119 l 5,2,-1
 765 1119 l 5,3,-1
 515 1370 l 5,4,-1
 266 1119 l 5,5,-1
 164 1119 l 5,0,-1
188 136.5 m 128,-1,7
 42 283 42 283 42 500 c 0,8,9
 42 718 42 718 188 864 c 128,-1,10
 334 1010 334 1010 552 1010 c 256,11,12
 770 1010 770 1010 916 864 c 128,-1,13
 1062 718 1062 718 1062 500 c 256,14,15
 1062 282 1062 282 916 136 c 128,-1,16
 770 -10 770 -10 552 -10 c 256,17,6
 334 -10 334 -10 188 136.5 c 128,-1,7
551 232 m 256,18,19
 665 232 665 232 736 308.5 c 128,-1,20
 807 385 807 385 807 499 c 256,21,22
 807 613 807 613 736 690 c 128,-1,23
 665 767 665 767 550 767 c 0,24,25
 437 767 437 767 366 690 c 128,-1,26
 295 613 295 613 295 499 c 256,27,28
 295 385 295 385 366 308.5 c 128,-1,29
 437 232 437 232 551 232 c 256,18,19
EndSplineSet
EndChar

StartChar: odieresis
Encoding: 246 246 115
Width: 1152
GlyphClass: 2
Flags: W
LayerCount: 2
Fore
SplineSet
291 1442 m 256,0,1
 231 1442 231 1442 191 1402 c 128,-1,2
 151 1362 151 1362 151 1292 c 256,3,4
 151 1222 151 1222 191 1182 c 128,-1,5
 231 1142 231 1142 291 1142 c 256,6,7
 351 1142 351 1142 391.5 1182 c 128,-1,8
 432 1222 432 1222 432 1294 c 0,9,10
 432 1362 432 1362 391.5 1402 c 128,-1,11
 351 1442 351 1442 291 1442 c 256,0,1
807 1442 m 256,12,13
 747 1442 747 1442 707 1402 c 128,-1,14
 667 1362 667 1362 667 1292 c 256,15,16
 667 1222 667 1222 707 1182 c 128,-1,17
 747 1142 747 1142 807 1142 c 256,18,19
 867 1142 867 1142 907.5 1182 c 128,-1,20
 948 1222 948 1222 948 1294 c 0,21,22
 948 1362 948 1362 907.5 1402 c 128,-1,23
 867 1442 867 1442 807 1442 c 256,12,13
188 136.5 m 128,-1,25
 42 283 42 283 42 500 c 0,26,27
 42 718 42 718 188 864 c 128,-1,28
 334 1010 334 1010 552 1010 c 256,29,30
 770 1010 770 1010 916 864 c 128,-1,31
 1062 718 1062 718 1062 500 c 256,32,33
 1062 282 1062 282 916 136 c 128,-1,34
 770 -10 770 -10 552 -10 c 256,35,24
 334 -10 334 -10 188 136.5 c 128,-1,25
551 232 m 256,36,37
 665 232 665 232 736 308.5 c 128,-1,38
 807 385 807 385 807 499 c 256,39,40
 807 613 807 613 736 690 c 128,-1,41
 665 767 665 767 550 767 c 0,42,43
 437 767 437 767 366 690 c 128,-1,44
 295 613 295 613 295 499 c 256,45,46
 295 385 295 385 366 308.5 c 128,-1,47
 437 232 437 232 551 232 c 256,36,37
EndSplineSet
EndChar

StartChar: divide
Encoding: 247 247 116
Width: 1108
GlyphClass: 2
Flags: W
LayerCount: 2
Fore
SplineSet
80 637 m 1,0,-1
 80 797 l 1,1,-1
 1028 797 l 1,2,-1
 1028 637 l 1,3,-1
 80 637 l 1,0,-1
400 1059 m 256,4,5
 400 999 400 999 440 959 c 128,-1,6
 480 919 480 919 550 919 c 256,7,8
 620 919 620 919 660 959 c 128,-1,9
 700 999 700 999 700 1059 c 256,10,11
 700 1119 700 1119 660 1159.5 c 128,-1,12
 620 1200 620 1200 548 1200 c 0,13,14
 480 1200 480 1200 440 1159.5 c 128,-1,15
 400 1119 400 1119 400 1059 c 256,4,5
400 359 m 256,16,17
 400 299 400 299 440 259 c 128,-1,18
 480 219 480 219 550 219 c 256,19,20
 620 219 620 219 660 259 c 128,-1,21
 700 299 700 299 700 359 c 256,22,23
 700 419 700 419 660 459.5 c 128,-1,24
 620 500 620 500 548 500 c 0,25,26
 480 500 480 500 440 459.5 c 128,-1,27
 400 419 400 419 400 359 c 256,16,17
EndSplineSet
EndChar

StartChar: uacute
Encoding: 250 250 117
Width: 1125
GlyphClass: 2
Flags: W
LayerCount: 2
Fore
SplineSet
476 1086 m 1,0,-1
 281 1086 l 1,1,-1
 671 1302 l 1,2,-1
 863 1305 l 1,3,-1
 476 1086 l 1,0,-1
703 355 m 1,4,-1
 703 1001 l 1,5,-1
 983 1001 l 1,6,-1
 983 0 l 1,7,-1
 703 0 l 1,8,-1
 703 91 l 1,9,10
 602 1 602 1 463 1 c 0,11,12
 273 1 273 1 173 116 c 128,-1,13
 73 231 73 231 73 381 c 2,14,-1
 73 1001 l 1,15,-1
 353 1001 l 1,16,-1
 353 451 l 2,17,18
 353 351 353 351 403 296 c 128,-1,19
 453 241 453 241 554 238 c 1,20,21
 641 244 641 244 703 355 c 1,4,-1
EndSplineSet
EndChar

StartChar: udieresis
Encoding: 252 252 118
Width: 1125
GlyphClass: 2
Flags: W
LayerCount: 2
Fore
SplineSet
249 1439 m 256,0,1
 189 1439 189 1439 149 1399 c 128,-1,2
 109 1359 109 1359 109 1289 c 256,3,4
 109 1219 109 1219 149 1179 c 128,-1,5
 189 1139 189 1139 249 1139 c 256,6,7
 309 1139 309 1139 349.5 1179 c 128,-1,8
 390 1219 390 1219 390 1291 c 0,9,10
 390 1359 390 1359 349.5 1399 c 128,-1,11
 309 1439 309 1439 249 1439 c 256,0,1
765 1439 m 256,12,13
 705 1439 705 1439 665 1399 c 128,-1,14
 625 1359 625 1359 625 1289 c 256,15,16
 625 1219 625 1219 665 1179 c 128,-1,17
 705 1139 705 1139 765 1139 c 256,18,19
 825 1139 825 1139 865.5 1179 c 128,-1,20
 906 1219 906 1219 906 1291 c 0,21,22
 906 1359 906 1359 865.5 1399 c 128,-1,23
 825 1439 825 1439 765 1439 c 256,12,13
703 355 m 1,24,-1
 703 1001 l 1,25,-1
 983 1001 l 1,26,-1
 983 0 l 1,27,-1
 703 0 l 1,28,-1
 703 91 l 1,29,30
 602 1 602 1 463 1 c 0,31,32
 273 1 273 1 173 116 c 128,-1,33
 73 231 73 231 73 381 c 2,34,-1
 73 1001 l 1,35,-1
 353 1001 l 1,36,-1
 353 451 l 2,37,38
 353 351 353 351 403 296 c 128,-1,39
 453 241 453 241 554 238 c 1,40,41
 641 244 641 244 703 355 c 1,24,-1
EndSplineSet
EndChar

StartChar: Amacron
Encoding: 256 256 119
Width: 1644
GlyphClass: 2
Flags: W
LayerCount: 2
Fore
SplineSet
290 1654 m 1,0,-1
 1314 1654 l 1,1,-1
 1314 1554 l 1,2,-1
 290 1554 l 1,3,-1
 290 1654 l 1,0,-1
44 0 m 1,4,-1
 644 1500 l 1,5,-1
 944 1500 l 1,6,-1
 1543 1 l 1,7,-1
 1224 0 l 1,8,-1
 1134 230 l 1,9,-1
 454 230 l 1,10,-1
 364 0 l 1,11,-1
 44 0 l 1,4,-1
802 1100 m 1,12,-1
 574 530 l 1,13,-1
 1024 530 l 1,14,-1
 802 1100 l 1,12,-1
EndSplineSet
EndChar

StartChar: dotlessi
Encoding: 305 305 120
Width: 524
GlyphClass: 2
Flags: W
LayerCount: 2
Fore
SplineSet
100 0 m 1,0,-1
 100 1001 l 1,1,-1
 380 1001 l 1,2,-1
 380 0 l 1,3,-1
 100 0 l 1,0,-1
EndSplineSet
EndChar

StartChar: Zdotaccent
Encoding: 379 379 121
Width: 1475
GlyphClass: 2
Flags: W
LayerCount: 2
Fore
SplineSet
564 1714 m 256,0,1
 564 1654 564 1654 604 1614 c 128,-1,2
 644 1574 644 1574 714 1574 c 256,3,4
 784 1574 784 1574 824 1614 c 128,-1,5
 864 1654 864 1654 864 1714 c 256,6,7
 864 1774 864 1774 824 1814.5 c 128,-1,8
 784 1855 784 1855 712 1855 c 0,9,10
 644 1855 644 1855 604 1814.5 c 128,-1,11
 564 1774 564 1774 564 1714 c 256,0,1
1299 0 m 1,12,-1
 98 0 l 1,13,-1
 99 100 l 1,14,-1
 798 1220 l 1,15,-1
 99 1220 l 1,16,-1
 98 1500 l 1,17,-1
 1299 1500 l 1,18,-1
 1299 1390 l 1,19,-1
 597 280 l 1,20,-1
 1299 280 l 1,21,-1
 1299 0 l 1,12,-1
EndSplineSet
EndChar

StartChar: endash
Encoding: 8211 8211 122
Width: 1108
GlyphClass: 2
Flags: W
LayerCount: 2
Fore
SplineSet
56 399 m 1,0,-1
 56 559 l 1,1,-1
 1052 559 l 1,2,-1
 1052 399 l 1,3,-1
 56 399 l 1,0,-1
EndSplineSet
EndChar

StartChar: emdash
Encoding: 8212 8212 123
Width: 2048
GlyphClass: 2
Flags: W
LayerCount: 2
Fore
SplineSet
0 399 m 1,0,-1
 0 559 l 1,1,-1
 2048 559 l 1,2,-1
 2048 399 l 1,3,-1
 0 399 l 1,0,-1
EndSplineSet
EndChar

StartChar: quoteleft
Encoding: 8216 8216 124
Width: 625
GlyphClass: 2
Flags: W
LayerCount: 2
Fore
SplineSet
479 1501 m 1,1,-1
 429 1591 l 1,2,3
 229 1490 229 1490 229 1248 c 2,4,-1
 229 1241 l 2,5,6
 229 1181 229 1181 269 1140.5 c 128,-1,7
 309 1100 309 1100 381 1100 c 0,8,9
 449 1100 449 1100 489 1140.5 c 128,-1,10
 529 1181 529 1181 529 1241 c 256,11,12
 529 1301 529 1301 489 1341 c 128,-1,13
 449 1381 449 1381 379 1381 c 2,14,-1
 368 1381 l 1,15,0
 398 1470 398 1470 479 1501 c 1,1,-1
EndSplineSet
EndChar

StartChar: quoteright
Encoding: 8217 8217 125
Width: 625
GlyphClass: 2
Flags: W
LayerCount: 2
Fore
SplineSet
142 1190 m 1,1,-1
 192 1100 l 1,2,3
 392 1201 392 1201 392 1443 c 2,4,-1
 392 1450 l 2,5,6
 392 1510 392 1510 352 1550.5 c 128,-1,7
 312 1591 312 1591 240 1591 c 0,8,9
 172 1591 172 1591 132 1550.5 c 128,-1,10
 92 1510 92 1510 92 1450 c 256,11,12
 92 1390 92 1390 132 1350 c 128,-1,13
 172 1310 172 1310 242 1310 c 2,14,-1
 253 1310 l 1,15,0
 223 1221 223 1221 142 1190 c 1,1,-1
EndSplineSet
EndChar

StartChar: quotesinglbase
Encoding: 8218 8218 126
Width: 625
GlyphClass: 2
Flags: W
LayerCount: 2
Fore
SplineSet
262 -120 m 1,1,-1
 312 -210 l 1,2,3
 512 -109 512 -109 512 133 c 2,4,-1
 512 140 l 2,5,6
 512 200 512 200 472 240.5 c 128,-1,7
 432 281 432 281 360 281 c 0,8,9
 292 281 292 281 252 240.5 c 128,-1,10
 212 200 212 200 212 140 c 256,11,12
 212 80 212 80 252 40 c 128,-1,13
 292 0 292 0 362 0 c 2,14,-1
 373 0 l 1,15,0
 343 -89 343 -89 262 -120 c 1,1,-1
EndSplineSet
EndChar

StartChar: quotedblleft
Encoding: 8220 8220 127
Width: 985
GlyphClass: 2
Flags: W
LayerCount: 2
Fore
SplineSet
479 1501 m 1,1,-1
 429 1591 l 1,2,3
 229 1490 229 1490 229 1248 c 2,4,-1
 229 1241 l 2,5,6
 229 1181 229 1181 269 1140.5 c 128,-1,7
 309 1100 309 1100 381 1100 c 0,8,9
 449 1100 449 1100 489 1140.5 c 128,-1,10
 529 1181 529 1181 529 1241 c 256,11,12
 529 1301 529 1301 489 1341 c 128,-1,13
 449 1381 449 1381 379 1381 c 2,14,-1
 368 1381 l 1,15,0
 398 1470 398 1470 479 1501 c 1,1,-1
850 1501 m 1,17,-1
 800 1591 l 1,18,19
 600 1490 600 1490 600 1248 c 2,20,-1
 600 1241 l 2,21,22
 600 1181 600 1181 640 1140.5 c 128,-1,23
 680 1100 680 1100 752 1100 c 0,24,25
 820 1100 820 1100 860 1140.5 c 128,-1,26
 900 1181 900 1181 900 1241 c 256,27,28
 900 1301 900 1301 860 1341 c 128,-1,29
 820 1381 820 1381 750 1381 c 2,30,-1
 739 1381 l 1,31,16
 769 1470 769 1470 850 1501 c 1,17,-1
EndSplineSet
EndChar

StartChar: quotedblright
Encoding: 8221 8221 128
Width: 985
GlyphClass: 2
Flags: W
LayerCount: 2
Fore
SplineSet
510 1190 m 1,1,-1
 560 1100 l 1,2,3
 760 1201 760 1201 760 1443 c 2,4,-1
 760 1450 l 2,5,6
 760 1510 760 1510 720 1550.5 c 128,-1,7
 680 1591 680 1591 608 1591 c 0,8,9
 540 1591 540 1591 500 1550.5 c 128,-1,10
 460 1510 460 1510 460 1450 c 256,11,12
 460 1390 460 1390 500 1350 c 128,-1,13
 540 1310 540 1310 610 1310 c 2,14,-1
 621 1310 l 1,15,0
 591 1221 591 1221 510 1190 c 1,1,-1
139 1190 m 1,17,-1
 189 1100 l 1,18,19
 389 1201 389 1201 389 1443 c 2,20,-1
 389 1450 l 2,21,22
 389 1510 389 1510 349 1550.5 c 128,-1,23
 309 1591 309 1591 237 1591 c 0,24,25
 169 1591 169 1591 129 1550.5 c 128,-1,26
 89 1510 89 1510 89 1450 c 256,27,28
 89 1390 89 1390 129 1350 c 128,-1,29
 169 1310 169 1310 239 1310 c 2,30,-1
 250 1310 l 1,31,16
 220 1221 220 1221 139 1190 c 1,17,-1
EndSplineSet
EndChar

StartChar: quotedblbase
Encoding: 8222 8222 129
Width: 985
GlyphClass: 2
Flags: W
LayerCount: 2
Fore
SplineSet
621 -141 m 1,1,-1
 671 -231 l 1,2,3
 871 -130 871 -130 871 112 c 2,4,-1
 871 119 l 2,5,6
 871 179 871 179 831 219.5 c 128,-1,7
 791 260 791 260 719 260 c 0,8,9
 651 260 651 260 611 219.5 c 128,-1,10
 571 179 571 179 571 119 c 256,11,12
 571 59 571 59 611 19 c 128,-1,13
 651 -21 651 -21 721 -21 c 2,14,-1
 732 -21 l 1,15,0
 702 -110 702 -110 621 -141 c 1,1,-1
250 -141 m 1,17,-1
 300 -231 l 1,18,19
 500 -130 500 -130 500 112 c 2,20,-1
 500 119 l 2,21,22
 500 179 500 179 460 219.5 c 128,-1,23
 420 260 420 260 348 260 c 0,24,25
 280 260 280 260 240 219.5 c 128,-1,26
 200 179 200 179 200 119 c 256,27,28
 200 59 200 59 240 19 c 128,-1,29
 280 -21 280 -21 350 -21 c 2,30,-1
 361 -21 l 1,31,16
 331 -110 331 -110 250 -141 c 1,17,-1
EndSplineSet
EndChar

StartChar: ellipsis
Encoding: 8230 8230 130
Width: 2048
GlyphClass: 2
Flags: W
LayerCount: 2
Fore
SplineSet
200 140 m 256,0,1
 200 80 200 80 240 40 c 128,-1,2
 280 0 280 0 350 0 c 256,3,4
 420 0 420 0 460 40 c 128,-1,5
 500 80 500 80 500 140 c 256,6,7
 500 200 500 200 460 240.5 c 128,-1,8
 420 281 420 281 348 281 c 0,9,10
 280 281 280 281 240 240.5 c 128,-1,11
 200 200 200 200 200 140 c 256,0,1
899 140 m 256,12,13
 899 80 899 80 939 40 c 128,-1,14
 979 0 979 0 1049 0 c 256,15,16
 1119 0 1119 0 1159 40 c 128,-1,17
 1199 80 1199 80 1199 140 c 256,18,19
 1199 200 1199 200 1159 240.5 c 128,-1,20
 1119 281 1119 281 1047 281 c 0,21,22
 979 281 979 281 939 240.5 c 128,-1,23
 899 200 899 200 899 140 c 256,12,13
1601 140 m 256,24,25
 1601 80 1601 80 1641 40 c 128,-1,26
 1681 0 1681 0 1751 0 c 256,27,28
 1821 0 1821 0 1861 40 c 128,-1,29
 1901 80 1901 80 1901 140 c 256,30,31
 1901 200 1901 200 1861 240.5 c 128,-1,32
 1821 281 1821 281 1749 281 c 0,33,34
 1681 281 1681 281 1641 240.5 c 128,-1,35
 1601 200 1601 200 1601 140 c 256,24,25
EndSplineSet
EndChar

StartChar: guilsinglleft
Encoding: 8249 8249 131
Width: 676
GlyphClass: 2
Flags: W
LayerCount: 2
Fore
SplineSet
174 479 m 1,0,-1
 527 792 l 1,1,-1
 575 792 l 1,2,-1
 575 745 l 1,3,-1
 370 479 l 1,4,-1
 575 213 l 1,5,-1
 575 166 l 1,6,-1
 527 166 l 1,7,-1
 174 479 l 1,0,-1
EndSplineSet
EndChar

StartChar: guilsinglright
Encoding: 8250 8250 132
Width: 676
GlyphClass: 2
Flags: W
LayerCount: 2
Fore
SplineSet
149 166 m 1,0,-1
 101 166 l 1,1,-1
 101 213 l 1,2,-1
 306 479 l 1,3,-1
 101 745 l 1,4,-1
 101 792 l 1,5,-1
 149 792 l 1,6,-1
 502 479 l 1,7,-1
 149 166 l 1,0,-1
EndSplineSet
EndChar

StartChar: fraction
Encoding: 8260 8260 133
AltUni2: 002215.ffffffff.0
Width: 342
GlyphClass: 2
Flags: W
LayerCount: 2
Fore
SplineSet
-192 -20 m 1,0,-1
 448 1454 l 1,1,-1
 532 1454 l 1,2,-1
 -106 -20 l 1,3,-1
 -192 -20 l 1,0,-1
EndSplineSet
EndChar

StartChar: Euro
Encoding: 8364 8364 134
Width: 1500
GlyphClass: 2
Flags: W
LayerCount: 2
Fore
SplineSet
121 940 m 1,0,1
 168 1136 168 1136 316 1285 c 0,2,3
 531 1500 531 1500 849 1500 c 0,4,5
 1170 1500 1170 1500 1400 1300 c 1,6,-1
 1200 1081 l 1,7,8
 1047 1201 1047 1201 849 1201 c 0,9,10
 647 1200 647 1200 524 1075 c 0,11,12
 465 1015 465 1015 434 940 c 1,13,-1
 1000 940 l 1,14,-1
 1000 800 l 1,15,-1
 402 800 l 1,16,17
 400 778 400 778 400 755 c 0,18,19
 400 727 400 727 402 701 c 1,20,-1
 1000 701 l 1,21,-1
 1000 561 l 1,22,-1
 434 561 l 1,23,24
 465 482 465 482 525 423 c 0,25,26
 649 300 649 300 851 300 c 256,27,28
 1053 300 1053 300 1200 419 c 1,29,-1
 1400 200 l 1,30,31
 1171 0 1171 0 849 0 c 0,32,33
 531 1 531 1 316 216 c 0,34,35
 168 363 168 363 121 561 c 1,36,-1
 -1 561 l 1,37,-1
 -1 701 l 1,38,-1
 101 701 l 1,39,40
 100 727 100 727 100 753 c 0,41,42
 100 777 100 777 101 800 c 1,43,-1
 -1 800 l 1,44,-1
 -1 940 l 1,45,-1
 121 940 l 1,0,1
EndSplineSet
EndChar

StartChar: minus
Encoding: 8722 8722 135
Width: 1108
GlyphClass: 2
Flags: W
LayerCount: 2
Fore
SplineSet
80 637 m 1,0,-1
 80 797 l 1,1,-1
 1028 797 l 1,2,-1
 1028 637 l 1,3,-1
 80 637 l 1,0,-1
EndSplineSet
EndChar

StartChar: Oacute
Encoding: 211 211 136
Width: 1647
Flags: W
LayerCount: 2
Fore
SplineSet
696 1577 m 1,0,-1
 501 1577 l 1,1,-1
 891 1793 l 1,2,-1
 1083 1796 l 1,3,-1
 696 1577 l 1,0,-1
262 215.5 m 128,-1,5
 47 431 47 431 47 750 c 0,6,7
 47 1070 47 1070 262 1285 c 128,-1,8
 477 1500 477 1500 797 1500 c 256,9,10
 1117 1500 1117 1500 1332 1285 c 128,-1,11
 1547 1070 1547 1070 1547 750 c 256,12,13
 1547 430 1547 430 1332 215 c 128,-1,14
 1117 0 1117 0 797 0 c 256,15,4
 477 0 477 0 262 215.5 c 128,-1,5
798 280 m 0,16,17
 997 280 997 280 1122 415 c 128,-1,18
 1247 550 1247 550 1247 750 c 256,19,20
 1247 950 1247 950 1122 1085 c 128,-1,21
 997 1220 997 1220 796 1220 c 0,22,23
 597 1220 597 1220 472 1085 c 128,-1,24
 347 950 347 950 347 750 c 256,25,26
 347 550 347 550 472 415 c 128,-1,27
 597 280 597 280 798 280 c 0,16,17
EndSplineSet
EndChar

StartChar: ograve
Encoding: 242 242 137
Width: 1152
Flags: W
LayerCount: 2
Fore
SplineSet
640 1117 m 1,0,-1
 804 1117 l 1,1,-1
 476 1315 l 1,2,-1
 315 1318 l 1,3,-1
 640 1117 l 1,0,-1
188 136.5 m 128,-1,5
 42 283 42 283 42 500 c 0,6,7
 42 718 42 718 188 864 c 128,-1,8
 334 1010 334 1010 552 1010 c 256,9,10
 770 1010 770 1010 916 864 c 128,-1,11
 1062 718 1062 718 1062 500 c 256,12,13
 1062 282 1062 282 916 136 c 128,-1,14
 770 -10 770 -10 552 -10 c 256,15,4
 334 -10 334 -10 188 136.5 c 128,-1,5
551 232 m 256,16,17
 665 232 665 232 736 308.5 c 128,-1,18
 807 385 807 385 807 499 c 256,19,20
 807 613 807 613 736 690 c 128,-1,21
 665 767 665 767 550 767 c 0,22,23
 437 767 437 767 366 690 c 128,-1,24
 295 613 295 613 295 499 c 256,25,26
 295 385 295 385 366 308.5 c 128,-1,27
 437 232 437 232 551 232 c 256,16,17
EndSplineSet
EndChar

StartChar: agrave
Encoding: 224 224 138
Width: 1099
Flags: W
LayerCount: 2
Fore
SplineSet
640 1117 m 5,0,-1
 804 1117 l 5,1,-1
 476 1315 l 5,2,-1
 315 1318 l 5,3,-1
 640 1117 l 5,0,-1
119 880 m 1,4,5
 309 1000 309 1000 559 1000 c 0,6,7
 739 1000 739 1000 844 900 c 128,-1,8
 949 800 949 800 949 600 c 2,9,-1
 949 0 l 1,10,-1
 669 0 l 1,11,-1
 669 80 l 1,12,13
 547 0 547 0 449 0 c 0,14,15
 249 0 249 0 149 85 c 128,-1,16
 49 170 49 170 49 320 c 0,17,18
 49 460 49 460 143.5 570 c 128,-1,19
 238 680 238 680 449 680 c 0,20,21
 546 680 546 680 669 620 c 1,22,-1
 669 650 l 2,23,24
 667 760 667 760 509 770 c 1,25,26
 329 770 329 770 229 710 c 1,27,-1
 119 880 l 1,4,5
669 300 m 1,28,-1
 669 413 l 1,29,30
 629 490 629 490 479 490 c 1,31,32
 299 470 299 470 289 350 c 1,33,34
 299 231 299 231 479 221 c 1,35,36
 629 221 629 221 669 300 c 1,28,-1
EndSplineSet
EndChar

StartChar: ucircumflex
Encoding: 251 251 139
Width: 1125
Flags: W
LayerCount: 2
Fore
SplineSet
164 1119 m 5,0,-1
 517 1619 l 5,1,-1
 866 1119 l 5,2,-1
 765 1119 l 5,3,-1
 515 1370 l 5,4,-1
 266 1119 l 5,5,-1
 164 1119 l 5,0,-1
703 355 m 1,6,-1
 703 1001 l 1,7,-1
 983 1001 l 1,8,-1
 983 0 l 1,9,-1
 703 0 l 1,10,-1
 703 91 l 1,11,12
 602 1 602 1 463 1 c 0,13,14
 273 1 273 1 173 116 c 128,-1,15
 73 231 73 231 73 381 c 2,16,-1
 73 1001 l 1,17,-1
 353 1001 l 1,18,-1
 353 451 l 2,19,20
 353 351 353 351 403 296 c 128,-1,21
 453 241 453 241 554 238 c 1,22,23
 641 244 641 244 703 355 c 1,6,-1
EndSplineSet
EndChar
